<?xml version="1.0" standalone="no"?>
<!DOCTYPE svg PUBLIC "-//W3C//DTD SVG 1.1//EN" "http://www.w3.org/Graphics/SVG/1.1/DTD/svg11.dtd" >
<svg xmlns="http://www.w3.org/2000/svg" xmlns:xlink="http://www.w3.org/1999/xlink" version="1.1">
<metadata></metadata>
<defs>
<font id="pirata_oneregular" horiz-adv-x="882" >
<font-face units-per-em="2048" ascent="1638" descent="-410" />
<missing-glyph horiz-adv-x="389" />
<glyph horiz-adv-x="0" />
<glyph horiz-adv-x="682" />
<glyph horiz-adv-x="0" />
<glyph horiz-adv-x="0" />
<glyph unicode="&#xd;" horiz-adv-x="681" />
<glyph unicode=" "  horiz-adv-x="389" />
<glyph unicode="&#x09;" horiz-adv-x="389" />
<glyph unicode="&#xa0;" horiz-adv-x="389" />
<glyph unicode="!" horiz-adv-x="450" d="M18 1411v45l207 117q45 -18 84 -60.5t39 -78.5v-865q0 -125 84 -141v-45l-207 -117q-45 18 -84 60.5t-39 79.5v864q0 125 -84 141zM131 -57v149q0 6 82 38t100.5 32t42 -36t23.5 -95v-125q0 -6 -85 -38t-98.5 -32t-39 35t-25.5 72z" />
<glyph unicode="&#x22;" horiz-adv-x="628" d="M51 1507q0 6 65.5 38t78 32t38 -35t25.5 -72l-20 -233q0 -8 -41 -39t-59.5 -31t-39 35t-26.5 96zM371 1507q0 6 65.5 38t77.5 32t38 -35t26 -72l-21 -233q0 -8 -41 -39t-59.5 -31t-39 35t-26.5 96z" />
<glyph unicode="#" horiz-adv-x="1169" d="M-139 391v45l123 117h215l108 317h-268v45l123 117h200l113 330l150 80h51l-141 -410h333l113 330l149 80h52l-140 -410h273v-49l-123 -113h-205l-106 -317h256v-49l-123 -113h-189l-106 -313l-154 -78h-45l131 391h-336l-106 -313l-154 -78h-45l133 391h-282zM371 553 h336l106 317h-334z" />
<glyph unicode="$" horiz-adv-x="870" d="M78 264v41q33 14 86 43q131 72 141 72q31 0 87.5 -141.5t84.5 -141.5q20 0 39 16.5t19 45.5v460q0 92 -52 93q-16 0 -129 -49.5t-127 -49.5q-51 0 -88 78t-37 191v426q0 35 183 118v199l114 61h50v-190q102 41 113 41t22.5 -10.5t25 -30.5t24.5 -40.5t30.5 -55.5 t31.5 -58q27 -49 68 -49v-41q-33 -14 -88 -43q-129 -72 -139 -71q-31 0 -77 120.5t-75 120.5q-37 0 -37 -61v-457q0 -82 37 -82q8 0 127 53.5t143 53.5q49 0 87 -79t38 -202v-436q0 -35 -196 -119v-205l-115 -61h-49v201q-129 -45 -143.5 -45t-33 34.5t-48 99t-53 107.5 t-64.5 43z" />
<glyph unicode="%" horiz-adv-x="1435" d="M102 965v346q0 10 150.5 67.5t175.5 57.5t71 -55.5t46 -98.5v-389q0 -10 -146.5 -66.5t-180.5 -56.5t-75 57.5t-41 137.5zM264 991q0 -98 66 -98q27 0 51 25v294q0 98 -66 99q-29 0 -51 -23v-297zM276 -51l666 1440l156 65l51 -6l-668 -1442l-159 -63zM891 197v346 q0 10 150.5 67.5t175 57.5t70.5 -55.5t46 -98.5v-389q0 -10 -146.5 -66.5t-180 -56.5t-74.5 57.5t-41 137.5zM1053 223q-1 -98 65 -98q27 0 51 25v294q0 98 -65 99q-33 0 -51 -23v-297z" />
<glyph unicode="&#x26;" horiz-adv-x="880" d="M102 299v1090q0 14 214 101t249 87q20 0 75.5 -125t78 -163t88.5 -38v-41q-45 -20 -152.5 -72.5t-115.5 -52.5q-31 0 -78 146.5t-76 146.5q-20 0 -37 -20v-541h131q66 6 134.5 58.5t93.5 140.5h71v-199h105l-21 -100h-84v-414q0 -125 84 -141v-45l-207 -117 q-72 33 -106 84q-209 -84 -262.5 -84t-119 90t-65.5 209zM348 389q0 -98 10.5 -122.5t21.5 -44t28.5 -27t44 -7.5t79.5 27v502h-184v-328z" />
<glyph unicode="'" horiz-adv-x="309" d="M51 1507q0 6 65.5 38t78 32t38 -35t25.5 -72l-20 -233q0 -8 -41 -39t-59.5 -31t-39 35t-26.5 96z" />
<glyph unicode="(" horiz-adv-x="651" d="M61 730.5q0 254.5 39 496.5q29 178 122 263t163 85q27 0 83 -21.5t97 -44.5l43 -22v-64q-117 0 -193.5 -58t-110.5 -239.5t-34 -395.5t33 -388t98.5 -238.5t208.5 -64.5v-59q-182 -92 -225 -93q-70 0 -164 87t-121 262q-39 240 -39 494.5z" />
<glyph unicode=")" horiz-adv-x="651" d="M61 -20v59q144 0 209.5 64.5t98 238.5t32.5 388t-33.5 395.5t-110.5 239.5t-194 58v64q162 88 227.5 88t159 -85t121.5 -263q39 -242 39 -497t-39 -494q-27 -174 -121 -261.5t-163 -87.5q-41 0 -178 68z" />
<glyph unicode="*" horiz-adv-x="706" d="M82 1145l147 119l-145 116l20 23l123 -4l68 -29v98l84 88h33v-186l69 27l121 4l23 -21l-146 -116l146 -117l-25 -25l-117 6l-71 29v-84l-82 -88h-35v170l-70 -29l-119 -6z" />
<glyph unicode="+" horiz-adv-x="862" d="M61 535v45l123 116h166v164l117 123h45v-287h289v-49l-123 -112h-166v-168l-113 -123h-49v291h-289z" />
<glyph unicode="," horiz-adv-x="454" d="M80 -201q37 14 53.5 77t16.5 116q0 8 -23 47t-23 92v84q0 6 85 38t98.5 32t39 -35t25.5 -72v-108q0 -61 -49 -185.5t-131 -171.5z" />
<glyph unicode="-" horiz-adv-x="780" d="M61 535v45l123 116h535v-49l-123 -112h-535z" />
<glyph unicode="." horiz-adv-x="452" d="M102 131v125q0 6 85 38t98.5 32t39 -35t25.5 -72v-149q0 -6 -82 -38t-100 -32t-42 36t-24 95z" />
<glyph unicode="/" horiz-adv-x="368" d="M-135 -78l510 1491l149 80h51l-512 -1493l-153 -78h-45z" />
<glyph unicode="0" d="M102 299v1090q0 14 233.5 101t268.5 87t105.5 -84t70.5 -152v-1151q0 -16 -224 -103t-274.5 -87t-115 88t-64.5 211zM348 340q1 -152 105 -152q39 0 79 33v1014q0 152 -104 151q-41 0 -80 -30v-1016zM395 674v166q0 2 31 14t36 12t14 -12t9 -27v-176q0 -2 -29.5 -13 t-36.5 -11t-15.5 12t-8.5 35z" />
<glyph unicode="1" horiz-adv-x="491" d="M-23 1395v45l269 137q45 -18 84 -60t39 -79v-1096q0 -55 18.5 -78.5t63.5 -23.5v-58q-416 -182 -418 -182l-33 66q16 0 39.5 14t40.5 33q43 49 43 149v1012q0 43 -28.5 70.5t-53.5 34.5t-64 16z" />
<glyph unicode="2" horiz-adv-x="792" d="M16 1024q55 61 56 131v234q0 12 216 100t254 88t103.5 -91t65.5 -140v-281q0 -109 -120 -326t-239 -379l-119 -163q227 4 265 4q113 0 137 67q23 -2 33 -2h12l115 -166q-6 -10 -17.5 -27.5t-51.5 -45t-87 -27.5h-576q-43 111 -43 190q0 27 111 194t222.5 350.5 t111.5 248.5v258q0 90 -17.5 126t-57.5 36t-73 -41v-188q0 -27 -2 -40.5t-15 -30t-42 -26.5l-213 -82z" />
<glyph unicode="3" horiz-adv-x="839" d="M6 244v39q244 121 295 120q10 0 12 -21.5t2 -89t27 -117.5t70 -50q82 0 82 127v43l-2 143v86q0 152 -23 183q-25 35 -66 34q-70 0 -141 -30l-22 -11l-21 74q166 88 273 135v344q0 168 -89 168q-35 0 -60.5 -28.5t-25.5 -69.5v-113q0 -27 -17 -44t-79 -40l-186 -71l-29 28 q53 55 53 136v155q0 14 234.5 107.5t269.5 93.5t105.5 -84t70.5 -152v-397q0 -31 -108 -86q106 -123 106 -258v-410q0 -45 -245.5 -125.5t-315.5 -80.5q-25 0 -38 43t-24.5 103t-21.5 77q-18 31 -86 39z" />
<glyph unicode="4" horiz-adv-x="821" d="M2 664.5q0 21.5 106.5 246t230.5 445.5t161 221q137 -35 196 -94q23 -23 23 -45v-748h82v-69l-82 -52v-227q0 -55 18.5 -78.5t63.5 -23.5v-58q-416 -182 -418 -182l-33 66q14 0 39 14t41 33q41 51 41 149v307h-422q-8 0 -27.5 37t-19.5 58.5zM197 686q274 2 276 4v549z " />
<glyph unicode="5" d="M78 264v41q33 14 86 43q131 72 141 72q31 0 87.5 -121t84.5 -121q20 0 39 16.5t19 45.5v436q0 92 -52 92q-16 0 -128.5 -49t-127.5 -49q-51 0 -88 77.5t-37 190.5v580q0 39 56 38h311q129 0 149 66l48 2l112 -168q-14 -39 -57 -69.5t-88 -30.5h-285v-377q0 -82 37 -82 q8 0 127 53.5t143 53.5q49 0 87 -88.5t38 -213.5v-493q0 -39 -234.5 -134t-269.5 -95q-14 0 -32.5 34.5t-48 99t-53 107.5t-64.5 43z" />
<glyph unicode="6" d="M102 299v641q0 127 72 283.5t145.5 255t98.5 98.5q51 0 132 -25.5t136 -52.5l55 -24v-62h-59q-104 0 -207.5 -132t-124.5 -296q225 100 257 100t102.5 -94t70.5 -162v-639q0 -16 -224 -103t-274.5 -87t-115 88t-64.5 211zM348 340q1 -152 105 -152q39 0 79 33v516 q0 66 -37.5 109t-146.5 43v-549z" />
<glyph unicode="7" horiz-adv-x="757" d="M20 1456q25 39 64 69.5t76 30.5h274q125 0 141 68h46q29 -39 72.5 -142.5t43.5 -123.5l-444 -1358h-98q-102 104 -103 174l451 1182h-219q-125 0 -142 -68h-45z" />
<glyph unicode="8" d="M102 299v338q0 37 119 84q-119 47 -119 231v434q0 14 233.5 101.5t268.5 87.5t105.5 -84t70.5 -152v-383q0 -39 -123 -75q47 -20 85 -72.5t38 -91.5v-527q0 -16 -224 -103t-274.5 -87t-115 88t-64.5 211zM348 340q1 -152 105 -152q39 0 79 33v369q0 152 -104 151 q-37 0 -80 -30v-371zM348 1055q1 -152 105 -152q39 0 79 33v297q0 152 -104 151q-37 0 -80 -30v-299z" />
<glyph unicode="9" d="M102 809v577q0 16 224.5 103.5t274.5 87.5t114.5 -88t64.5 -211v-580q0 -156 -71.5 -328.5t-145.5 -271t-98 -98.5q-51 0 -132 25.5t-136 52.5l-56 24v62h60q104 0 217.5 164t113.5 325q-225 -100 -256.5 -100t-102.5 94t-71 162zM350 901q0 -66 38 -108.5t147 -42.5v487 q-1 152 -105 152q-39 0 -80 -33v-455z" />
<glyph unicode=":" horiz-adv-x="452" d="M102 131v125q0 6 85 38t98.5 32t39 -35t25.5 -72v-149q0 -6 -82 -38t-100 -32t-42 36t-24 95zM102 700v125q0 6 85 38t98.5 32t39 -35t25.5 -72v-149q0 -6 -82 -38t-100 -32t-42 36t-24 95z" />
<glyph unicode=";" horiz-adv-x="450" d="M80 -201q37 14 53.5 77t16.5 116q0 8 -23 47t-23 92v84q0 6 85 38t98.5 32t39 -35t25.5 -72v-108q0 -61 -49 -185.5t-131 -171.5zM100 700v125q0 6 85 38t98.5 32t39 -35t25.5 -72v-149q0 -6 -82 -38t-100.5 -32t-42 36t-23.5 95z" />
<glyph unicode="&#x3c;" horiz-adv-x="739" d="M41 506l16 61l-16 62l633 350l24 -43l-28 -139l-465 -230l465 -223l28 -145l-24 -43z" />
<glyph unicode="=" horiz-adv-x="780" d="M61 375v45l123 117h535v-50l-123 -112h-535zM61 694v45l123 117h535v-49l-123 -113h-535z" />
<glyph unicode="&#x3e;" horiz-adv-x="739" d="M41 199l29 145l465 223l-465 230l-29 139l25 43l632 -350l-16 -62l16 -61l-632 -350z" />
<glyph unicode="?" horiz-adv-x="841" d="M45 1024q55 61 55 131v234q0 12 216 100t254 88t103.5 -91t65.5 -140v-355q0 -53 -99 -143t-198 -154l-98 -63v-58q0 -63 21.5 -99t44.5 -40l20 -4v-45q-199 -117 -213 -117t-64.5 45t-50.5 88v277q0 23 134.5 103.5t196 133t61.5 89.5v237q0 90 -17.5 126t-57.5 36 t-73 -41v-168q0 -47 -16.5 -65.5t-42.5 -30.5l-213 -103zM100 -33v125q0 6 85 38t98.5 32t39 -35t25.5 -72v-149q0 -6 -82 -38t-100.5 -32t-42 36t-23.5 95z" />
<glyph unicode="@" horiz-adv-x="1105" d="M102 193v862q0 16 321.5 112.5t381.5 96.5q41 0 120 -93.5t79 -169.5v-763l-310 -62q-78 39 -80 88q-133 -88 -166.5 -88t-75.5 57.5t-42 139.5v448q0 8 153.5 65.5t176 57.5t67.5 -55t45 -101v-401q0 -86 70 -96h45v594q0 166 -25.5 212t-112.5 46t-220.5 -38 t-223.5 -77l-90 -37v-753q0 -158 35 -201t133 -43q-29 -59 -76 -133q-63 0 -134 97t-71 235zM492 401q-1 -98 67 -98q29 0 55 23v395q0 96 -71 96q-27 0 -51 -16v-400z" />
<glyph unicode="A" d="M-20 0q45 0 86 53q36 52 36 156v1175q0 14 233.5 101.5t268.5 87.5t105.5 -84t70.5 -152v-536h101v-49l-101 -52v-397q0 -113 99 -133v-45l-224 -125q-45 18 -84 60t-39 79v561h-184v-385q0 -76 16.5 -108.5t67.5 -32.5v-63l-420 -177zM348 748l121 53h63v430 q0 151 -104 151q-41 0 -80 -30v-604z" />
<glyph unicode="B" horiz-adv-x="862" d="M18 1411v45l207 117q45 -18 84 -60t39 -79q231 137 248.5 137t58.5 -32t82 -88t41 -110v-344q0 -47 -168 -118q43 -12 106.5 -91t63.5 -143v-455q0 -16 -224 -103t-274.5 -87t-115 88t-64.5 211v983q0 111 -84 129zM348 340q1 -152 105 -152q39 0 79 33v318 q0 151 -103 151h-1q-41 0 -80 -31v-319zM348 879q184 51 184 221v129q0 55 -23.5 95t-67.5 40t-93 -61v-424z" />
<glyph unicode="C" horiz-adv-x="827" d="M102 367v1022q0 14 234.5 101t269.5 87q12 0 28.5 -59.5t38 -143.5t45 -124t89.5 -40v-41q-45 -20 -152.5 -72.5t-115.5 -52.5q-31 0 -78 167t-76 167q-20 0 -37 -20v-846q0 -86 10.5 -138t44.5 -104q68 -98 310 -98v-59q-10 0 -151.5 -56.5t-172.5 -56.5 q-102 0 -194.5 118t-92.5 249z" />
<glyph unicode="D" d="M18 1411v45l207 117q45 -18 84 -60.5t39 -78.5l254 143q37 0 107.5 -84t70.5 -152v-1151q0 -16 -224 -103t-274.5 -87t-115 88t-64.5 211v983q0 111 -84 129zM348 340q1 -152 105 -152q39 0 79 33v967q0 145 -104 145q-41 0 -80 -30v-963z" />
<glyph unicode="E" horiz-adv-x="827" d="M102 311v1078q0 14 234.5 101t269.5 87q12 0 28.5 -59.5t38 -143.5t45 -124t89.5 -40v-41q-45 -20 -152.5 -72.5t-115.5 -52.5q-31 0 -78 167t-76 167q-20 0 -37 -20v-541h289v-49l-102 -51h-187v-205q0 -227 45 -266q68 -57 148 -65.5t172 -8.5v-59q-10 0 -151.5 -56.5 t-172.5 -56.5q-63 0 -175 98.5t-112 212.5z" />
<glyph unicode="F" horiz-adv-x="718" d="M-20 0q45 0 86 53q36 50 36 151v5v1180q0 14 234.5 101t269.5 87q12 0 28.5 -59.5t38 -143.5t45 -124t89.5 -40v-41q-45 -20 -152.5 -72.5t-115.5 -52.5q-31 0 -78 167t-76 167q-20 0 -37 -20v-557h268v-49l-102 -52h-166v-385q0 -76 16.5 -108.5t67.5 -32.5v-63 l-420 -177z" />
<glyph unicode="G" horiz-adv-x="862" d="M102 299v1090q0 14 234.5 101t269.5 87q12 0 28.5 -59.5t38 -143.5t45 -124t89.5 -40v-41q-45 -20 -152.5 -72.5t-115.5 -52.5q-31 0 -78 167t-76 167q-20 0 -37 -20v-1018q1 -152 105 -152q39 0 79 33v264q0 125 -83 142v45l206 116q43 -18 84 -60t41 -79v-459 q0 -16 -224 -103t-274.5 -87t-115 88t-64.5 211z" />
<glyph unicode="H" horiz-adv-x="880" d="M-20 0q45 0 86 53q36 50 36 151v5v1065q0 125 -84 141v45l207 117q45 -18 84 -60t39 -79v-656l103 56h81v360q0 76 -16 108.5t-67 32.5v64l419 176l33 -66q-45 0 -86 -53q-37 -51 -37 -155v-467h103v-50l-103 -51v-434q0 -125 84 -141v-45l-207 -117q-45 18 -84 60 t-39 79v598h-184v-422q0 -76 16.5 -108.5t67.5 -32.5v-63l-420 -177z" />
<glyph unicode="I" horiz-adv-x="450" d="M-20 66q16 0 39.5 14t39.5 33q43 49 43 149v936q0 76 -16 108.5t-68 32.5v64l420 176l33 -66q-45 0 -86 -53q-37 -51 -37 -155v-963q0 -55 18.5 -78.5t63.5 -23.5v-58q-416 -182 -418 -182z" />
<glyph unicode="J" horiz-adv-x="450" d="M-94 -184h69q72 0 99.5 94t27.5 321v945q0 81 -176 81h-4v58q266 139 475 262l33 -66q-8 -4 -22.5 -15t-37 -67.5t-22.5 -138.5v-1073q0 -160 -18.5 -298t-45 -213t-55.5 -75q-51 0 -132 31t-136 62l-55 30v62z" />
<glyph unicode="K" horiz-adv-x="872" d="M-20 0q45 0 86 53q36 50 36 151v5v1061q0 125 -84 141v45l207 117q45 -18 84 -60.5t39 -76.5v-609q53 0 118.5 34t65.5 71v266q0 76 -16 108.5t-67 32.5v64l419 176l33 -66q-45 0 -86 -53q-37 -51 -37 -155v-396q4 -14 -221 -104q0 -43 28.5 -142.5t75 -208t116 -190.5 t138.5 -82v-61q-190 -121 -241 -121q-72 0 -194 313.5t-122 421.5l-10 -4v-416q0 -76 16.5 -108.5t67.5 -32.5v-63l-420 -177z" />
<glyph unicode="L" horiz-adv-x="753" d="M18 1339v64l420 176l33 -66q-45 0 -86 -53q-37 -51 -37 -155v-838q0 -164 29 -197q49 -61 96 -73q109 -25 240 -25v-57q-272 -115 -310 -115t-104 34t-131.5 109.5t-65.5 165.5v889q0 76 -16 108.5t-68 32.5z" />
<glyph unicode="M" horiz-adv-x="1310" d="M-20 0q45 0 86 53q36 52 36 156v1034q0 68 -28.5 117t-71.5 49v45q14 2 223 125q14 -4 35 -11t54.5 -40t33.5 -76q12 6 70 39q152 86 187.5 86t79.5 -37t67 -88q4 2 84 43q160 82 192 82q66 0 123 -86t57 -158v-1030q0 -113 101 -133v-45l-224 -125q-45 18 -83.5 60 t-38.5 79v1004q0 123 -40 171t-145 52v-1063q0 -113 101 -133v-45l-224 -125q-45 18 -84 60t-39 79v1004q0 129 -37.5 176t-146.5 47v-1051q0 -76 16.5 -108.5t67.5 -32.5v-63l-420 -177z" />
<glyph unicode="N" horiz-adv-x="880" d="M-20 0q41 0 79 49q43 57 43 184v1010q0 68 -28.5 117t-71.5 49v45q14 2 223 125q14 -4 35 -11t54.5 -40t33.5 -76q12 6 70 39q152 86 180 86q66 0 123 -86t57 -158v-1030q0 -113 101 -133v-45l-224 -125q-45 18 -84 60t-39 79v1004q0 129 -37.5 176t-146.5 47v-1051 q0 -82 20.5 -111.5t63.5 -29.5v-63l-420 -177z" />
<glyph unicode="O" d="M102 299v1090q0 14 233.5 101t268.5 87t105.5 -84t70.5 -152v-1151q0 -16 -224 -103t-274.5 -87t-115 88t-64.5 211zM348 340q1 -152 105 -152q39 0 79 33v1014q0 151 -103 151h-1q-41 0 -80 -30v-1016z" />
<glyph unicode="P" horiz-adv-x="862" d="M-20 0q45 0 86 53q36 50 36 151v5v1061q0 125 -84 141v45l207 117q41 -16 82 -59t41 -78q225 137 258 137t103.5 -84t70.5 -152v-637q0 -14 -162.5 -79.5t-269.5 -98.5v-207q0 -76 16.5 -108.5t67.5 -32.5v-63l-420 -177zM348 618q53 0 118.5 34t65.5 71v502 q0 151 -104 151q-37 0 -80 -30v-728z" />
<glyph unicode="Q" d="M102 299v1090q0 14 233.5 101t268.5 87t105.5 -84t70.5 -152v-1151q0 -16 -166 -81q129 -274 281 -275v-59q-182 -123 -242 -123q-82 0 -245 381q-92 -33 -121 -33q-55 0 -120 88t-65 211zM348 340q1 -152 105 -152q39 0 79 33v1014q0 151 -103 151h-1q-41 0 -80 -30 v-1016z" />
<glyph unicode="R" horiz-adv-x="884" d="M-20 0q45 0 86 53q36 52 36 156v1061q0 125 -84 141v45l207 117q41 -16 82 -59.5t41 -77.5q225 137 258 137t103.5 -84t70.5 -152v-575q0 -16 -223 -105q94 -317 221 -428q57 -47 117 -47v-61q-190 -121 -242 -121q-68 0 -171 254t-111 336l-23 -6v-269 q0 -76 16.5 -108.5t67.5 -32.5v-63l-420 -177zM348 680q53 0 118.5 34t65.5 70v441q0 151 -104 151q-37 0 -80 -30v-666z" />
<glyph unicode="S" horiz-adv-x="870" d="M78 264v41q33 14 86 43q131 72 141 72q31 0 87.5 -141.5t84.5 -141.5q20 0 39 16.5t19 45.5v460q0 92 -52 93q-16 0 -129 -49.5t-127 -49.5q-51 0 -88 78t-37 191v426q0 39 215 134t248 95q25 0 70 -82q10 -20 29.5 -55t31.5 -58q27 -49 68 -49v-41q-33 -14 -88 -43 q-127 -71 -139 -71q-31 0 -77 120.5t-75 120.5q-37 0 -37 -61v-457q0 -82 37 -82q8 0 127 53.5t143 53.5q49 0 87 -79t38 -202v-436q0 -39 -234.5 -134t-269.5 -95q-14 0 -32.5 34.5t-48 99t-53 107.5t-64.5 43z" />
<glyph unicode="T" horiz-adv-x="747" d="M-119 1456q25 39 64 69.5t75 30.5h541q125 0 141 68h46l116 -168q-25 -39 -63.5 -69.5t-75.5 -30.5h-229v-1041q0 -76 16 -108.5t68 -32.5v-63l-420 -177l-33 66q45 0 86 53q37 52 37 156v1085l63 62h-129q-125 0 -141 -68h-45z" />
<glyph unicode="U" horiz-adv-x="880" d="M2 1409v45l223 125q45 -18 84 -60t39 -79v-1004q0 -129 37.5 -176t146.5 -47v985q0 76 -16 108.5t-67 32.5v64l419 176l33 -66q-45 0 -86 -53q-37 -51 -37 -155v-969q0 -68 29 -117t72 -49v-45q-14 -2 -224 -125q-14 4 -34.5 11t-54.5 40t-34 76q-12 -6 -69 -39 q-152 -86 -180 -86q-66 0 -123.5 85t-57.5 159v1030q0 113 -100 133z" />
<glyph unicode="V" d="M2 1409v45l223 125q45 -18 84 -60t39 -79v-1166q0 -51 29 -85.5t61.5 -34.5t93.5 30v1014q0 76 -15 108.5t-66 32.5v64l419 176l33 -66q-45 0 -84 -53q-39 -51 -39 -155v-1115q0 -18 -219 -104t-282.5 -86t-120 96.5t-56.5 169.5v1010q0 113 -100 133z" />
<glyph unicode="W" horiz-adv-x="1312" d="M2 1409v45l223 125q45 -18 84 -60t39 -77v-1043q0 -194 120 -194h1q31 0 63 12v1059q0 113 -100 133v45q221 123 223 123q18 0 65.5 -40t57.5 -85q4 4 125 64.5t123 60.5q41 0 90 -49q94 -94 94 -252v-1086q0 -18 -219 -104t-272 -86q-96 0 -160 127 q-225 -127 -284.5 -127t-116 87t-56.5 161v1028q0 113 -100 133zM780 379q0 -66 25.5 -122t71 -56t86.5 18v983q0 106 -43 142t-140 38v-1003z" />
<glyph unicode="X" horiz-adv-x="933" d="M45 1409v43l213 125h80l223 -664l45 21v346q0 59 -20.5 93t-40.5 40l-23 4v45l197 117q16 0 69.5 -46t53.5 -87v-504q0 -35 -250 -125l201 -604q10 -29 39.5 -36t89.5 -7v-45l-224 -125h-90l-237 717l-43 -21v-397q0 -59 20.5 -93t40.5 -38l23 -6v-45l-197 -117 q-16 0 -69.5 46t-53.5 87v555q0 16 84 56t162 69l-176 530q-10 31 -30.5 46.5t-37 17.5t-49.5 2z" />
<glyph unicode="Y" horiz-adv-x="811" d="M-78 1409v43l213 125h80l236 -739l32 14v428q0 59 -20.5 93t-40.5 40l-23 4v45l197 117q16 0 69.5 -46t53.5 -87v-586q0 -35 -230 -117v-385q0 -68 15.5 -93t66.5 -25v-58l-417 -182l-33 66q88 20 108 98q14 55 15 133v432l-205 614q-10 31 -30.5 46.5t-37 17.5t-49.5 2z " />
<glyph unicode="Z" horiz-adv-x="757" d="M20 195l492 1161h-188q-125 0 -142 -68h-45l-117 168q25 39 64 69.5t76 30.5h274q125 0 141 68h46q29 -39 72.5 -142.5t43.5 -123.5l-465 -1157h162q125 0 141 67h46l116 -168q-25 -39 -63.5 -69.5t-75.5 -30.5h-537q-41 125 -41 195z" />
<glyph unicode="[" horiz-adv-x="452" d="M102 43v1395q0 37 31 71.5t62 51.5l30 16l228 -96v-45q-47 -10 -96.5 -55.5t-49.5 -106.5v-1067q0 -61 49.5 -106.5t96.5 -55.5v-45l-228 -96q-45 18 -84 60t-39 79z" />
<glyph unicode="\" horiz-adv-x="368" d="M-205 1493h51l150 -80l510 -1491h-45l-154 78z" />
<glyph unicode="]" horiz-adv-x="452" d="M2 0v45q47 10 96 55t49 107v1067q0 61 -49 106t-96 56v45l227 96q45 -18 84 -60t39 -79v-1395q0 -37 -30.5 -71.5t-61.5 -51.5l-31 -16z" />
<glyph unicode="^" horiz-adv-x="770" d="M41 1373.5q0 15.5 17.5 36t46 50t57.5 56.5q86 80 113.5 107.5t104.5 27.5t118 -31q63 -53 147 -136t84 -104.5t-6 -44.5q-12 -43 -27 -43q-25 0 -120 62.5t-191 140.5q-96 -78 -191.5 -140.5t-119.5 -62.5q-14 0 -23.5 33t-9.5 48.5z" />
<glyph unicode="_" horiz-adv-x="798" d="M61 -115l123 117h553v-49l-123 -113h-553v45z" />
<glyph unicode="`" horiz-adv-x="370" d="M41 1612q0 39 88 39t100 -21q35 -55 68 -133t33 -108.5t-6 -53.5q-12 -43 -27 -43q-51 0 -72 25q-184 238 -184 295z" />
<glyph unicode="a" horiz-adv-x="839" d="M61 246v336q0 33 106.5 84t213.5 84l108 34q0 117 -61 163t-238 46v62q314 112 356 112h1q68 0 129 -88t61 -182v-580q0 -76 24.5 -105.5t76.5 -41.5v-45l-224 -125q-45 18 -83.5 60t-38.5 77l-256 -137q-6 4 -18.5 11t-42.5 31t-52 50q-61 68 -62 154zM307 319 q0 -53 32 -86.5t71 -33.5t82 30v463q-51 -18 -77 -30.5t-55 -38.5q-53 -49 -53 -170v-134z" />
<glyph unicode="b" horiz-adv-x="880" d="M20 1255v58q266 139 476 262l32 -66q-20 -10 -57 -39.5t-61 -60.5q-61 -78 -62 -176v-174q209 108 245 108h1q53 0 119.5 -84t66.5 -178v-715q0 -20 -226 -105t-277.5 -85t-113 93t-61.5 206v854q0 55 -18 78.5t-64 23.5zM348 369q0 -180 94 -181q49 0 90 33v512 q0 201 -73 228q-35 12 -111 12v-604z" />
<glyph unicode="c" horiz-adv-x="827" d="M102 291v688q0 14 234.5 101t269.5 87q12 0 28.5 -59t38 -143t45 -124t89.5 -40v-41q-45 -20 -152.5 -72.5t-115.5 -52.5q-31 0 -78 167t-76 167q-20 0 -37 -21v-565q0 -158 135 -195q70 -16 166 -16v-59q-336 -113 -358 -113q-61 0 -125 87t-64 204z" />
<glyph unicode="d" horiz-adv-x="880" d="M102 248v731q0 20 347 141q-74 162 -119 227.5t-88 65.5h-68v62q227 102 313 102q55 0 174 -268.5t119 -370.5v-625q0 -47 25.5 -92t73.5 -51v-45q-14 -2 -224 -125q-47 20 -85 60t-38 75q-219 -135 -256 -135q-14 0 -54 31.5t-80 92t-40 124.5zM348 340q1 -152 105 -152 q39 0 79 33v713q0 12 -17 52t-26 40q-59 0 -120 -37l-21 -12v-637z" />
<glyph unicode="e" horiz-adv-x="870" d="M102 291v688q0 14 233.5 101t268.5 87q10 0 51 -31.5t82 -88t41 -109.5v-344q0 -37 -108.5 -90t-210 -87t-109.5 -34q0 -158 137 -195q68 -16 162 -16v-59q-336 -113 -358 -113q-61 0 -125 87t-64 204zM348 475q184 51 184 221v146q0 57 -26.5 97t-67.5 40t-90 -31v-473z " />
<glyph unicode="f" horiz-adv-x="655" d="M-23 954v45l125 56v291q0 39 209 134t254 95q16 0 26.5 -15.5t16.5 -27.5l19 -39q14 -27 28 -51q27 -49 68 -49v-41q-33 -14 -88 -45q-129 -70 -139 -70q-31 0 -56.5 90t-54.5 90q-37 0 -37 -61v-301h209v-49l-102 -52h-107v-651q0 -125 84 -141v-45l-207 -117 q-45 18 -84 60t-39 79v815h-125z" />
<glyph unicode="g" d="M102 303v674q0 20 226.5 105t277.5 85t112.5 -93t61.5 -206v-651q0 -78 -69.5 -222.5t-147.5 -254t-106 -109.5q-51 0 -137.5 31t-147.5 62l-59 30v62h69q80 0 182.5 91t170.5 243q-231 -109 -267 -109q-63 0 -114.5 81t-51.5 181zM350 475q0 -143 45 -191t140 -48v563 q0 180 -95 180q-49 0 -90 -33v-471z" />
<glyph unicode="h" horiz-adv-x="880" d="M20 1255v58q266 139 476 262l32 -66q-20 -10 -57 -39.5t-61 -60.5q-61 -78 -62 -176v-174q209 108 245 108h1q66 0 125 -81.5t59 -180.5v-602q0 -113 101 -133v-45l-224 -125q-45 18 -84 60t-39 79v594q0 201 -73 228q-35 12 -111 12v-670q0 -125 84 -141v-45l-207 -117 q-45 18 -84 60t-39 79v1014q0 55 -18 78.5t-64 23.5z" />
<glyph unicode="i" horiz-adv-x="450" d="M18 1006v45l207 116q45 -18 84 -60t39 -79v-725q0 -125 84 -141v-45l-207 -117q-45 18 -84 60t-39 79v725q0 125 -84 142zM72 1423v125q0 6 85 38t98 32t38.5 -35t26.5 -72v-149q0 -6 -82 -38t-100.5 -32t-42 36t-23.5 95z" />
<glyph unicode="j" horiz-adv-x="450" d="M-94 -184h69q72 0 99.5 94t27.5 321v633q0 125 -84 142v45l207 116q45 -18 84 -60t39 -79v-811q0 -160 -18.5 -298t-45 -213t-55.5 -75q-51 0 -132 31t-136 62l-55 30v62zM72 1378v125q0 6 85 38t98 32t38.5 -35t25.5 -72v-149q0 -6 -81.5 -38t-100 -32t-42 36t-23.5 95z " />
<glyph unicode="k" horiz-adv-x="880" d="M20 1255v58q266 139 476 262l32 -66q-20 -10 -57 -39.5t-61 -60.5q-61 -78 -62 -176v-189q190 123 225 123q57 0 127 -74.5t70 -166.5v-224q0 -23 -213 -104q129 -342 252 -393q39 -18 86 -23v-59q-190 -123 -240 -123q-66 0 -167 199.5t-140 332.5v-229q0 -125 84 -141 v-45l-207 -117q-45 18 -84 60t-39 79v1014q0 55 -18 78.5t-64 23.5zM348 633q41 0 148 51l36 18v93q0 174 -118 174l-66 -11v-325z" />
<glyph unicode="l" horiz-adv-x="450" d="M18 1413v45l207 117q45 -18 84 -60t39 -79v-1133q0 -125 84 -141v-45l-207 -117q-45 18 -84 60t-39 79v1133q0 125 -84 141z" />
<glyph unicode="m" horiz-adv-x="1310" d="M2 999v45q14 2 223 125q14 -4 35 -11t54.5 -40t33.5 -76q12 6 70 39q152 86 187.5 86t79.5 -36.5t67 -88.5q4 2 84 43q160 82 192 82q66 0 123 -86t57 -157v-621q0 -113 101 -133v-45l-224 -125q-45 18 -83.5 60t-38.5 79v604q0 133 -35 177.5t-90 44.5l-60 -13v-649 q0 -113 101 -133v-45l-224 -125q-45 18 -84 60t-39 79v594q0 236 -112 236l-72 -13v-653q0 -125 84 -141v-45l-207 -117q-45 18 -84 60t-39 79v695q0 68 -28.5 116.5t-71.5 48.5z" />
<glyph unicode="n" horiz-adv-x="880" d="M2 999v45q14 2 223 125q14 -4 35 -11t54.5 -40t33.5 -76q12 6 70 39q152 86 180 86q66 0 123 -86t57 -157v-621q0 -113 101 -133v-45l-224 -125q-45 18 -84 60t-39 79v594q0 115 -25.5 175.5t-90.5 60.5l-68 -13v-653q0 -125 84 -141v-45l-207 -117q-45 18 -84 60t-39 79 v695q0 68 -28.5 116.5t-71.5 48.5z" />
<glyph unicode="o" d="M102 299v680q0 14 233.5 101t268.5 87t105.5 -84t70.5 -151v-742q0 -16 -224 -103t-274.5 -87t-115 88t-64.5 211zM348 340q1 -152 105 -152q39 0 79 33v604q0 152 -104 152q-41 0 -80 -31v-606z" />
<glyph unicode="p" horiz-adv-x="880" d="M4 995v45q14 2 223 125q47 -20 85 -60t38 -75q219 135 256 135q14 0 54 -31.5t80 -92t40 -123.5v-730q0 -14 -181 -84.5t-251 -89.5v-75q0 -125 84 -142v-45l-207 -117q-45 18 -84 60.5t-39 79.5v1077q0 47 -25.5 92t-72.5 51zM350 131q53 0 119 35t66 74v585 q-1 152 -105 152q-39 0 -80 -33v-813z" />
<glyph unicode="q" d="M102 303v674q0 20 226.5 105t277.5 85t112.5 -93t61.5 -206v-895q0 -55 18.5 -78.5t63.5 -23.5v-57q-416 -182 -418 -183l-32 66q16 0 39.5 14.5t40.5 32.5q43 49 43 150v256q-231 -109 -267 -109q-63 0 -114.5 81t-51.5 181zM350 475q0 -143 45 -191t140 -48v563 q0 180 -95 180q-49 0 -90 -33v-471z" />
<glyph unicode="r" horiz-adv-x="778" d="M2 999v45l225 123q14 -4 34 -11t53.5 -40t33.5 -74q10 4 97 64.5t112 60.5q66 0 123 -86t57 -157v-101l-211 -118l-34 28q0 172 -33 197q-36 26 -106 26h-5v-653q0 -125 84 -141v-45l-207 -117q-45 18 -84 60t-39 79v680q0 90 -31.5 135t-68.5 45z" />
<glyph unicode="s" horiz-adv-x="829" d="M68 223v41q33 14 88 43q129 72 139 72q31 0 77 -121t74 -121q20 0 39 16.5t19 45.5v256q0 92 -51 92q-16 0 -129 -49t-127 -49q-51 0 -88 77.5t-37 190.5v221q0 39 215 134t248 95q18 0 32.5 -21.5t22.5 -34.5t25.5 -45t29.5 -52q27 -49 68 -49v-41q-33 -14 -86 -43 q-131 -72 -142 -72q-31 0 -66.5 100.5t-64.5 100.5q-37 0 -37 -62v-252q0 -82 37 -82q8 0 127 53.5t144 53.5q49 0 87 -79t38 -202v-231q0 -39 -234.5 -134t-269.5 -95q-14 0 -27.5 25.5t-37 78.5t-46.5 90q-27 49 -67 49z" />
<glyph unicode="t" horiz-adv-x="450" d="M18 1034l21 86q61 0 148 83t104 177h57v-243h105l-21 -101h-84v-733q0 -125 84 -141v-45l-207 -117q-45 18 -84 60t-39 79v895h-84z" />
<glyph unicode="u" horiz-adv-x="880" d="M2 999v45l223 125q45 -18 84 -60t39 -79v-711q0 -53 32 -86.5t70.5 -33.5t81.5 30v637q0 125 -83 142v45l206 116q45 -18 84 -60t39 -79v-694q0 -68 29 -117t72 -49v-45q-14 -2 -224 -125q-47 20 -85 60t-38 77l-256 -137q-6 4 -18 11t-42 31t-52 50q-61 68 -62 154v620 q0 113 -100 133z" />
<glyph unicode="v" horiz-adv-x="880" d="M2 999v45l223 125q45 -18 81 -57t42 -70l250 125q61 0 121.5 -88t60.5 -192v-697q0 -18 -219 -104t-282.5 -86t-120 96.5t-56.5 169.5v600q0 113 -100 133zM348 274q0 -51 29 -85.5t61.5 -34.5t93.5 30v580q0 131 -38.5 170t-145.5 39v-699z" />
<glyph unicode="w" horiz-adv-x="1312" d="M2 999v45l223 125q45 -18 84 -60t39 -77v-633q0 -194 120 -194h1q31 0 63 12v649q0 113 -100 133v45q221 123 223 123q18 0 65.5 -40t57.5 -85q4 4 125 64.5t123 60.5q41 0 90 -49q94 -94 94 -252v-676q0 -18 -219 -104t-272 -86q-96 0 -160 127q-225 -127 -284.5 -127 t-116 87t-56.5 161v618q0 113 -100 133zM780 379q0 -66 25.5 -122t71 -56t86.5 18v574q0 106 -43 142t-140 38v-594z" />
<glyph unicode="x" horiz-adv-x="892" d="M25 999v43l213 125h57l240 -483l51 25v161q0 59 -20.5 93t-41.5 41l-22 4v45l196 116q16 0 69.5 -46t53.5 -87v-319q0 -33 -237 -119l207 -385q27 -43 110 -43v-45l-223 -125h-57l-259 518l-55 -26v-193q0 -59 20.5 -93t41.5 -38l22 -6v-45l-196 -117q-16 0 -69.5 46 t-53.5 87v350q0 33 243 123l-159 326q-14 31 -38 47t-42 18t-51 2z" />
<glyph unicode="y" d="M4 999v45l223 125q45 -18 84 -60t39 -79v-555q0 -143 45 -191t140 -48v630q0 125 -84 142v45l206 116q45 -18 84 -60t39 -79v-813q0 -78 -69.5 -222.5t-147.5 -254t-106 -109.5q-51 0 -137.5 31t-147.5 62l-59 30v62h69q80 0 182.5 91t170.5 243q-231 -109 -267 -109 q-63 0 -113.5 81t-50.5 181v563q0 113 -100 133z" />
<glyph unicode="z" horiz-adv-x="757" d="M20 195l482 753h-178q-125 0 -142 -67h-45l-117 168q25 39 64 69.5t76 30.5h274q125 0 141 68h46q29 -39 72.5 -142.5t43.5 -124.5l-465 -749h162q125 0 141 67h46l116 -168q-25 -39 -63.5 -69.5t-75.5 -30.5h-537q-41 125 -41 195z" />
<glyph unicode="{" horiz-adv-x="452" d="M-43 707v45q47 10 96 55t49 106v525q0 37 31 71.5t62 51.5l30 16l228 -96v-45q-47 -10 -96.5 -55.5t-49.5 -106.5v-428q0 -59 -82 -117q82 -58 82 -115v-403q0 -61 49.5 -106.5t96.5 -55.5v-45l-228 -96q-45 18 -84 60t-39 79v498q0 61 -49 106t-96 56z" />
<glyph unicode="|" horiz-adv-x="368" d="M102 -346v1778l115 122h49v-1777l-119 -123h-45z" />
<glyph unicode="}" horiz-adv-x="452" d="M-2 4v45q47 10 96 55.5t49 106.5v403q0 57 82 115q-82 57 -82 117v428q0 61 -49 106t-96 56v45l227 96q45 -18 84 -60t39 -79v-525q0 -61 49 -106t97 -55v-45q-47 -10 -96.5 -55.5t-49.5 -106.5v-498q0 -37 -30.5 -71.5t-61.5 -51.5l-31 -16z" />
<glyph unicode="~" horiz-adv-x="757" d="M41 1444q63 82 129 82t168 -28t135 -28q102 0 123 52h41l80 -150q-63 -82 -139 -82q-51 0 -144.5 30t-142.5 30t-84 -16.5t-45 -39.5h-43z" />
<glyph unicode="&#xa1;" horiz-adv-x="450" d="M18 778v45l207 117q45 -18 84 -60t39 -79v-864q0 -125 84 -142v-45l-207 -117q-45 18 -84 60.5t-39 79.5v864q0 125 -84 141zM72 1176v124q0 6 85 38t98 32t38.5 -35t25.5 -71v-150q0 -6 -81.5 -38t-100 -32t-42 36.5t-23.5 95.5z" />
<glyph unicode="&#xa2;" horiz-adv-x="827" d="M102 291v688q0 10 201 88v199l115 123h49v-263q113 41 139 41q12 0 28.5 -59t38 -143t45 -124t89.5 -40v-41q-45 -20 -152.5 -72.5t-115.5 -52.5q-31 0 -78 167t-76 167q-20 0 -37 -21v-565q0 -158 135 -195q70 -16 166 -16v-59q-57 -20 -127 -43v-191l-119 -123h-45v262 q-55 -18 -67 -18q-61 0 -125 87t-64 204z" />
<glyph unicode="&#xa3;" horiz-adv-x="827" d="M-272 182v41q37 16 92 47q125 68 139 68q25 0 52.5 -90t51.5 -90q39 0 39 59v498h-165v51l102 51h63v572q0 14 234.5 101t269.5 87q12 0 28.5 -59.5t38 -143.5t45 -124t89.5 -40v-41q-45 -20 -152.5 -72.5t-115.5 -52.5q-31 0 -78 167t-76 167q-20 0 -37 -20v-541h289 v-49l-102 -51h-187v-205q0 -227 45 -266q68 -57 148 -65.5t172 -8.5v-59q-10 0 -151.5 -56.5t-171.5 -56.5t-87 31.5t-106 83.5q-276 -115 -314 -115q-18 0 -28.5 19.5t-16.5 31.5q-16 33 -31.5 63.5t-35 47t-43.5 20.5z" />
<glyph unicode="&#xa4;" d="M-16 131v64l139 139q-20 53 -21 127v334l-104 106v70h162l102 -103q291 115 340 115q18 0 55 -31l60 60h162v-70l-119 -119q20 -45 20 -75v-396q0 -4 92 -96v-63h-165l-84 81q-272 -113 -336 -112q-33 0 -72 35l-65 -66h-166zM348 502q1 -152 105 -152q39 0 79 33v258 q0 152 -104 152q-41 0 -80 -31v-260z" />
<glyph unicode="&#xa5;" d="M-70 451v45l123 116h66q-14 43 -15 101v57h-163v45l122 117h41v344q0 113 -100 133v45l223 125q45 -18 84 -60t39 -79v-555q0 -143 45 -191.5t140 -48.5v584q0 111 -82 110v64l419 174l33 -64q-43 0 -82 -47q-43 -49 -43 -161v-373h164v-49l-123 -113h-41v-158h164v-49 l-123 -112h-41v-154q0 -113 -115.5 -205t-177.5 -92q-51 0 -249 86l-68 29v57q197 0 256 37q27 16 46.5 28.5t30.5 43t18 49t9 63.5q4 94 5 166q-231 -109 -267 -108h-338z" />
<glyph unicode="&#xa6;" horiz-adv-x="368" d="M102 -348v766l115 123h49v-766l-119 -123h-45zM102 666v766l115 122h49v-766l-119 -122h-45z" />
<glyph unicode="&#xa7;" horiz-adv-x="886" d="M102 225v41q37 14 91 45q127 70 139 70q25 0 74 -110.5t73.5 -110.5t38.5 14t21 41v215q0 98 -54 98q-10 0 -124.5 -49t-131.5 -49q-49 0 -79.5 56.5t-36.5 111.5l-7 57v197q0 25 54 57q12 6 28 17q-82 61 -82 252v172q0 37 213 132t250 95q20 0 38 -27.5t26 -40 t22.5 -41t23.5 -45t27.5 -31t41.5 -18.5v-41q-209 -115 -230 -114q-35 0 -76 131q-22 69 -57 69q-29 0 -33 -57v-215q0 -82 37 -82q10 0 125 53t148 53q53 0 83.5 -75.5t34.5 -151.5l4 -76v-143q0 -18 -57 -53q-18 -12 -20 -13q35 -33 54 -90t21 -98l2 -43v-199 q0 -33 -234.5 -131t-268.5 -98q-27 0 -66 84t-47 98.5t-25.5 26.5t-40.5 16zM352 760q1 -152 105 -152q39 0 80 33v178q0 152 -105 152q-37 0 -80 -31v-180z" />
<glyph unicode="&#xa8;" horiz-adv-x="794" d="M74 1409v111q0 6 76.5 34.5t89 28.5t35 -30.5t22.5 -65.5v-133q0 -6 -72.5 -35t-90 -29t-39 33t-21.5 86zM498 1409v111q0 6 76.5 34.5t89 28.5t35 -30.5t22.5 -65.5v-133q0 -6 -73 -35t-90 -29t-38.5 33t-21.5 86z" />
<glyph unicode="&#xa9;" horiz-adv-x="1146" d="M100 299v776q0 14 356.5 101.5t401.5 87.5t115.5 -84t70.5 -152v-838q0 -16 -346 -103t-407.5 -87t-126 88t-64.5 211zM203 340q0 -143 30.5 -182t128 -39t245 31.5t241.5 64.5l92 33v674q0 150 -23.5 191.5t-101.5 41.5q-147 0 -498 -102l-114 -35v-678zM326 500v340 q0 10 160.5 73.5t187.5 63.5q10 0 22 -43q41 -164 60 -197q18 -29 65 -28v-31q-35 -12 -102.5 -51t-73.5 -39q-22 0 -57 121.5t-53.5 121.5t-28.5 -14v-250q0 -68 37 -104.5t78 -43.5t104 -7v-43q-246 -82 -262 -82q-45 0 -91 64.5t-46 148.5z" />
<glyph unicode="&#xaa;" horiz-adv-x="677" d="M102 1075v129q0 20 73 54t144 57l74 24q0 119 -203 119v43q213 76 250 76t77 -50.5t40 -111.5v-291q0 -51 17.5 -69.5t52.5 -26.5v-31l-152 -86q-82 39 -82 95l-172 -95q-45 23 -82 71t-37 93zM268 1126q0 -36 21.5 -59t47 -23t56.5 23v209q-100 -35 -117 -84 q-8 -23 -8 -57v-9z" />
<glyph unicode="&#xab;" horiz-adv-x="1230" d="M41 506l16 61l-16 62l510 309l24 -43l-28 -139l-342 -189l342 -182l28 -145l-24 -43zM614 506l17 61l-17 62l510 309l25 -43l-29 -139l-342 -189l342 -182l29 -145l-25 -43z" />
<glyph unicode="&#xac;" horiz-adv-x="780" d="M61 535v45l123 116h484q37 0 44 -6t7 -43v-225l-119 -123h-45v236h-494z" />
<glyph unicode="&#xad;" horiz-adv-x="780" d="M61 535v45l123 116h484q37 0 44 -6t7 -43v-225l-119 -123h-45v236h-494z" />
<glyph unicode="&#xae;" horiz-adv-x="1146" d="M100 299v776q0 14 356.5 101.5t401.5 87.5t115.5 -84t70.5 -152v-838q0 -16 -346 -103t-407.5 -87t-126 88t-64.5 211zM203 340q0 -143 30.5 -182t128 -39t245 31.5t241.5 64.5l92 33v674q0 150 -23.5 191.5t-101.5 41.5q-147 0 -498 -102l-114 -35v-678zM260 293 q31 0 57.5 36.5t26.5 108.5v326q0 84 -55 98v33l141 82q84 -43 86 -96q152 96 176.5 96t73.5 -59.5t49 -104.5v-147q0 -10 -153 -72q47 -174 233 -174v-43q-133 -84 -174 -84t-112.5 105.5t-76.5 148.5l-16 -4v-31q0 -53 11.5 -75.5t45.5 -22.5v-45l-290 -121zM516 608 q35 0 81 23.5t46 50.5v53q0 105 -72 105q-31 0 -55 -21v-211z" />
<glyph unicode="&#xaf;" horiz-adv-x="757" d="M59 1290v45l103 97h555v-50l-103 -92h-555z" />
<glyph unicode="&#xb0;" horiz-adv-x="647" d="M102 1243v209q0 10 150.5 67.5t175.5 57.5t71 -55.5t46 -98.5v-252q0 -10 -146.5 -66t-180.5 -56t-75 57t-41 137zM264 1270q0 -99 66 -99q27 0 51 25v158q0 98 -66 98q-33 0 -51 -22v-160z" />
<glyph unicode="&#xb1;" horiz-adv-x="862" d="M61 172v45l123 117h617v-49l-123 -113h-617zM61 721v45l123 117h166v164l117 122h45v-286h289v-49l-123 -113h-166v-168l-113 -123h-49v291h-289z" />
<glyph unicode="&#xb2;" horiz-adv-x="634" d="M63 1264q39 43 39 88v98q0 8 145.5 67.5t171 59.5t69.5 -61.5t44 -96.5v-135q0 -39 -65.5 -102.5t-130.5 -106.5l-66 -43h121q20 0 52 19.5t44 48.5q12 -2 19 -2h6l80 -111q-35 -68 -105 -67h-391q-29 76 -28 129q0 25 150.5 125t150.5 120v54q-1 118 -64 118 q-20 0 -53 -28v-70q0 -35 -11.5 -47t-31.5 -21l-125 -57z" />
<glyph unicode="&#xb3;" horiz-adv-x="634" d="M68 1044v27q139 59 176 59q6 0 6 -65q0 -57 65 -57q53 0 54 84v24q0 103 -68 103q-37 0 -98 -29l-15 51q109 57 181 88v57q0 43 -17.5 66t-41 23t-41 -18.5t-17.5 -45.5v-35q0 -16 -10.5 -24.5t-53.5 -28.5l-100 -49l-20 18q35 39 34 90v64q0 8 145.5 69.5t169 61.5 t69.5 -45t46 -88v-92q0 -20 -71 -58q70 -59 69 -108v-137q0 -29 -152.5 -83.5t-197.5 -54.5q-16 0 -25.5 18.5t-17.5 48.5t-14 44q-10 14 -55 22z" />
<glyph unicode="&#xb4;" horiz-adv-x="370" d="M41 1388.5q0 30.5 32.5 108.5t67.5 133q12 20 100.5 20.5t88.5 -38.5q0 -57 -185 -295q-20 -25 -71 -25q-14 0 -23.5 33t-9.5 63.5z" />
<glyph unicode="&#xb5;" horiz-adv-x="880" d="M-20 -301q16 0 39.5 14.5t39.5 32.5q43 49 43 150v970q0 113 -100 133v45l223 125q45 -18 84 -60t39 -79v-711q0 -53 32 -86.5t70.5 -33.5t81.5 30v637q0 125 -83 142v45l206 116q45 -18 84 -60t39 -79v-694q0 -68 29 -117t72 -49v-45q-14 -2 -224 -125q-47 20 -85 60 t-38 77l-184 -98v-64q0 -55 18.5 -78.5t63.5 -23.5v-57q-416 -182 -418 -183z" />
<glyph unicode="&#xb6;" d="M102 707v643q0 61 467 190v-1554l-209 -88l-32 65q68 0 91 85.5t23 230.5v176q-129 -47 -155 -47q-55 0 -120 88t-65 211zM653 23v1540q49 14 68.5 14t33 -13.5t19.5 -43.5q6 -45 6 -138v-1067q0 -82 15 -102q25 -39 69 -39v-63z" />
<glyph unicode="&#xb7;" horiz-adv-x="452" d="M102 535v124q0 6 85 38t98.5 32t39 -35t25.5 -71v-150q0 -6 -82 -38t-100 -32t-42 36.5t-24 95.5z" />
<glyph unicode="&#xb8;" horiz-adv-x="405" d="M41 -94q0 74 33 137l10 23h135q-29 -106 -29 -130t15 -24l110 33q20 0 35 -35t15 -84v-84q0 -14 -120 -51t-136 -37q-31 0 -31 43q0 8 129 51q23 8 22 25v22q0 35 -20 35l-119 -37q-18 0 -33.5 38t-15.5 75z" />
<glyph unicode="&#xb9;" horiz-adv-x="368" d="M6 1456v31l178 90q82 -39 82 -92v-338q0 -70 53 -70v-37q-274 -121 -276 -120l-23 43q31 0 56.5 37.5t25.5 93.5v282q0 63 -96 80z" />
<glyph unicode="&#xba;" horiz-adv-x="647" d="M102 1106v346q0 10 150.5 67.5t175.5 57.5t71 -55.5t46 -98.5v-389q0 -10 -146.5 -66.5t-180.5 -56.5t-75 57.5t-41 137.5zM264 1133q0 -99 66 -99q27 0 51 25v295q0 98 -66 98q-33 0 -51 -22v-297z" />
<glyph unicode="&#xbb;" horiz-adv-x="1230" d="M82 240l29 145l342 182l-342 189l-29 139l24 43l510 -309l-16 -62l16 -61l-510 -309zM655 240l29 145l342 182l-342 189l-29 139l25 43l510 -309l-16 -62l16 -61l-510 -309z" />
<glyph unicode="&#xbd;" horiz-adv-x="1320" d="M102 1395v30l179 91q81 -40 81 -93v-338q0 -70 54 -69v-37q-274 -121 -277 -121l-22 43q31 0 56.5 38t25.5 93v283q0 63 -97 80zM203 -78l510 1491l149 80h51l-512 -1493l-153 -78h-45zM692 346q39 47 39 88v98q0 8 145.5 67.5t171 59.5t69.5 -61t44 -96v-135 q0 -39 -72.5 -106.5t-116.5 -97.5t-73 -48h121q20 0 52 19.5t44 47.5h2l19 -2h4l80 -110q-20 -35 -47 -51.5t-58 -16.5h-391l-8 21q-20 61 -21 108q0 25 150.5 125t150.5 121v53q0 119 -63 119q-25 0 -53 -29v-69v-29q-4 -23 -43 -39l-125 -57z" />
<glyph unicode="&#xbf;" horiz-adv-x="841" d="M102 -137v354q0 53 98.5 143.5t196.5 153.5l101 64v57q0 63 -21.5 99t-42.5 40l-22 4v45q199 117 213 117t64 -45t50 -88v-277q0 -23 -134 -103.5t-195.5 -132.5t-61.5 -89v-238q0 -90 17.5 -126t57.5 -36t73 41v168q0 47 16 65.5t43 31.5l213 102l29 -29 q-55 -61 -56 -131v-233q0 -12 -216 -100.5t-254 -88.5t-103.5 91.5t-65.5 140.5zM494 1153v150q0 6 81.5 37.5t100 31.5t42 -36t23.5 -95v-125q0 -6 -85 -37.5t-98 -31.5t-38.5 34.5t-25.5 71.5z" />
<glyph unicode="&#xc0;" d="M-20 0q45 0 86 53q36 52 36 156v1175q0 14 233.5 101.5t268.5 87.5t105.5 -84t70.5 -152v-536h101v-49l-101 -52v-397q0 -113 99 -133v-45l-224 -125q-45 18 -84 60t-39 79v561h-184v-385q0 -76 16.5 -108.5t67.5 -32.5v-63l-420 -177zM174 1980q0 39 88 39t100 -20 q35 -55 68 -133t33 -109t-6 -53q-12 -43 -27 -43q-51 0 -72 25q-184 238 -184 294zM348 748l121 53h63v430q0 151 -104 151q-41 0 -80 -30v-604z" />
<glyph unicode="&#xc1;" d="M-20 0q45 0 86 53q36 52 36 156v1175q0 14 233.5 101.5t268.5 87.5t105.5 -84t70.5 -152v-536h101v-49l-101 -52v-397q0 -113 99 -133v-45l-224 -125q-45 18 -84 60t-39 79v561h-184v-385q0 -76 16.5 -108.5t67.5 -32.5v-63l-420 -177zM348 748l121 53h63v430 q0 151 -104 151q-41 0 -80 -30v-604zM358 1755q0 31 33 109t68 133q12 20 100 20t88 -39q0 -57 -184 -295q-20 -25 -72 -24q-14 0 -23.5 32.5t-9.5 63.5z" />
<glyph unicode="&#xc2;" d="M-20 0q45 0 86 53q36 52 36 156v1175q0 14 233.5 101.5t268.5 87.5t105.5 -84t70.5 -152v-536h101v-49l-101 -52v-397q0 -113 99 -133v-45l-224 -125q-45 18 -84 60t-39 79v561h-184v-385q0 -76 16.5 -108.5t67.5 -32.5v-63l-420 -177zM96 1741.5q0 15.5 17.5 36t46 50.5 t57.5 56q86 80 113.5 107.5t104.5 27.5t118 -30q63 -54 147 -137t84 -104.5t-6 -43.5q-12 -43 -26 -43q-25 0 -120 62.5t-192 140.5q-96 -78 -191 -140.5t-120 -62.5q-14 0 -23.5 32.5t-9.5 48zM348 748l121 53h63v430q0 151 -104 151q-41 0 -80 -30v-604z" />
<glyph unicode="&#xc3;" d="M-20 0q45 0 86 53q36 52 36 156v1175q0 14 233.5 101.5t268.5 87.5t105.5 -84t70.5 -152v-536h101v-49l-101 -52v-397q0 -113 99 -133v-45l-224 -125q-45 18 -84 60t-39 79v561h-184v-385q0 -76 16.5 -108.5t67.5 -32.5v-63l-420 -177zM102 1812q63 82 129 82 t168.5 -27.5t135.5 -27.5q102 0 122 51h41l80 -149q-63 -82 -139 -82q-51 0 -144.5 29.5t-142.5 29.5t-84 -16t-45 -39h-43zM348 748l121 53h63v430q0 151 -104 151q-41 0 -80 -30v-604z" />
<glyph unicode="&#xc4;" d="M-20 0q45 0 86 53q36 52 36 156v1175q0 14 233.5 101.5t268.5 87.5t105.5 -84t70.5 -152v-536h101v-49l-101 -52v-397q0 -113 99 -133v-45l-224 -125q-45 18 -84 60t-39 79v561h-184v-385q0 -76 16.5 -108.5t67.5 -32.5v-63l-420 -177zM117 1778v110q0 6 76.5 35t89 29 t35 -31t22.5 -66v-133q0 -6 -72.5 -34.5t-90 -28.5t-39 33t-21.5 86zM348 748l121 53h63v430q0 151 -104 151q-41 0 -80 -30v-604zM541 1778v110q0 6 76.5 35t89 29t35 -31t22.5 -66v-133q0 -6 -73 -34.5t-90 -28.5t-38.5 33t-21.5 86z" />
<glyph unicode="&#xc5;" d="M-20 0q45 0 86 53q36 52 36 156v1175q0 14 233.5 101.5t268.5 87.5t105.5 -84t70.5 -152v-536h101v-49l-101 -52v-397q0 -113 99 -133v-45l-224 -125q-45 18 -84 60t-39 79v561h-184v-385q0 -76 16.5 -108.5t67.5 -32.5v-63l-420 -177zM289 1786v127q0 6 108.5 43t123 37 t44 -36t29.5 -63v-153q0 -6 -104.5 -43t-126 -37t-48 36t-26.5 89zM348 748l121 53h63v430q0 151 -104 151q-41 0 -80 -30v-604zM412 1804q-1 -63 34 -63q18 0 23 12v96q0 63 -33 64q-16 0 -24 -12v-97z" />
<glyph unicode="&#xc6;" horiz-adv-x="1241" d="M-20 0q45 0 86 53q36 52 36 156v1175q0 14 233.5 101.5t271.5 87.5t116 -100q279 104 315 104q12 0 28.5 -59.5t38 -143.5t45.5 -124t89 -40v-41q-45 -20 -152.5 -72.5t-115.5 -52.5q-31 0 -78 167t-76 167q-37 0 -37 -41v-536h289v-49l-102 -52h-187v-188 q0 -227 47 -266q66 -57 146 -65.5t172 -8.5v-59q-10 0 -151.5 -56.5t-172.5 -56.5q-63 0 -174.5 98.5t-111.5 212.5v389h-187v-385q0 -76 16.5 -108.5t67.5 -32.5v-63l-420 -177zM348 748l121 53h66v430q-1 151 -107 151q-41 0 -80 -30v-604z" />
<glyph unicode="&#xc7;" horiz-adv-x="827" d="M102 367q0 -131 92.5 -249t194.5 -118q31 0 172 56.5t152 56.5v59q-242 0 -310 98q-35 51 -45 103.5t-10 138.5v846q17 20 37 20q29 0 76 -167t78 -167q8 0 115.5 52.5t152.5 72.5v41q-66 0 -89.5 40t-45 124t-38 143.5t-28.5 59.5q-35 0 -269.5 -87t-234.5 -101v-1022z M299 -94q0 74 33 137l10 23h135q-29 -106 -28.5 -130t14.5 -24l110 33q20 0 35 -35t15 -84v-84q0 -14 -120 -51t-136 -37q-31 0 -31 43q0 8 129 51q23 8 22 25v22q0 35 -20 35l-119 -37q-18 0 -33.5 38t-15.5 75z" />
<glyph unicode="&#xc8;" horiz-adv-x="827" d="M102 311v1078q0 14 234.5 101t269.5 87q12 0 28.5 -59.5t38 -143.5t45 -124t89.5 -40v-41q-45 -20 -152.5 -72.5t-115.5 -52.5q-31 0 -78 167t-76 167q-20 0 -37 -20v-541h289v-49l-102 -51h-187v-205q0 -227 45 -266q68 -57 148 -65.5t172 -8.5v-59q-10 0 -151.5 -56.5 t-172.5 -56.5q-63 0 -175 98.5t-112 212.5zM223 1978q0 39 88 39t101 -20q34 -55 67 -133t33 -109t-6 -51q-12 -45 -27 -45q-51 0 -71 24q-184 238 -185 295z" />
<glyph unicode="&#xc9;" horiz-adv-x="827" d="M102 311v1078q0 14 234.5 101t269.5 87q12 0 28.5 -59.5t38 -143.5t45 -124t89.5 -40v-41q-45 -20 -152.5 -72.5t-115.5 -52.5q-31 0 -78 167t-76 167q-20 0 -37 -20v-541h289v-49l-102 -51h-187v-205q0 -227 45 -266q68 -57 148 -65.5t172 -8.5v-59q-10 0 -151.5 -56.5 t-172.5 -56.5q-63 0 -175 98.5t-112 212.5zM229 1755q0 31 33 109t68 133q12 20 100 20t88 -39q0 -57 -184 -295q-20 -25 -72 -24q-14 0 -23.5 32.5t-9.5 63.5z" />
<glyph unicode="&#xca;" horiz-adv-x="827" d="M33 1739.5q0 15.5 17.5 36t46 50t57.5 56.5q86 80 113.5 107.5t104.5 27.5t117 -30q64 -54 148 -138t84 -104.5t-6 -40.5q-12 -45 -27 -45q-25 0 -120 62.5t-191 140.5q-96 -78 -191.5 -140.5t-119.5 -62.5q-14 0 -23.5 32.5t-9.5 48zM102 311v1078q0 14 234.5 101 t269.5 87q12 0 28.5 -59.5t38 -143.5t45 -124t89.5 -40v-41q-45 -20 -152.5 -72.5t-115.5 -52.5q-31 0 -78 167t-76 167q-20 0 -37 -20v-541h289v-49l-102 -51h-187v-205q0 -227 45 -266q68 -57 148 -65.5t172 -8.5v-59q-10 0 -151.5 -56.5t-172.5 -56.5q-63 0 -175 98.5 t-112 212.5z" />
<glyph unicode="&#xcb;" horiz-adv-x="827" d="M49 1776v110q0 6 77 35t89 29t34.5 -31t22.5 -66v-133q0 -6 -72.5 -34.5t-90 -28.5t-39 33t-21.5 86zM102 311v1078q0 14 234.5 101t269.5 87q12 0 28.5 -59.5t38 -143.5t45 -124t89.5 -40v-41q-45 -20 -152.5 -72.5t-115.5 -52.5q-31 0 -78 167t-76 167q-20 0 -37 -20 v-541h289v-49l-102 -51h-187v-205q0 -227 45 -266q68 -57 148 -65.5t172 -8.5v-59q-10 0 -151.5 -56.5t-172.5 -56.5q-63 0 -175 98.5t-112 212.5zM473 1776v110q0 6 77 35t89 29t34.5 -31t22.5 -66v-133q0 -6 -72.5 -34.5t-90 -28.5t-39 33t-21.5 86z" />
<glyph unicode="&#xcc;" horiz-adv-x="450" d="M-20 66q16 0 39.5 14t39.5 33q43 49 43 149v936q0 76 -16 108.5t-68 32.5v64l420 176l33 -66q-45 0 -86 -53q-37 -51 -37 -155v-963q0 -55 18.5 -78.5t63.5 -23.5v-58q-416 -182 -418 -182zM76 1978q0 39 88 39t100 -20q35 -55 68 -133t33 -109t-7 -51q-12 -45 -26 -45 q-51 0 -72 24q-184 238 -184 295z" />
<glyph unicode="&#xcd;" horiz-adv-x="450" d="M-20 66q16 0 39.5 14t39.5 33q43 49 43 149v936q0 76 -16 108.5t-68 32.5v64l420 176l33 -66q-45 0 -86 -53q-37 -51 -37 -155v-963q0 -55 18.5 -78.5t63.5 -23.5v-58q-416 -182 -418 -182zM82 1755q0 31 32.5 109t67.5 133q12 20 100.5 20t88.5 -39q0 -57 -185 -295 q-20 -25 -71 -24q-14 0 -23.5 32.5t-9.5 63.5z" />
<glyph unicode="&#xce;" horiz-adv-x="450" d="M-115 1739.5q0 15.5 17.5 36t46 50t57.5 56.5q86 80 113.5 107.5t104.5 27.5t118 -30q64 -54 147.5 -138t83.5 -104.5t-6 -40.5q-12 -45 -26 -45q-25 0 -120 62.5t-192 140.5q-96 -78 -191 -140.5t-120 -62.5q-14 0 -23.5 32.5t-9.5 48zM-20 66q16 0 39.5 14t39.5 33 q43 49 43 149v936q0 76 -16 108.5t-68 32.5v64l420 176l33 -66q-45 0 -86 -53q-37 -51 -37 -155v-963q0 -55 18.5 -78.5t63.5 -23.5v-58q-416 -182 -418 -182z" />
<glyph unicode="&#xcf;" horiz-adv-x="450" d="M-98 1776v110q0 6 76.5 35t89 29t35 -31t22.5 -66v-133q0 -6 -72.5 -34.5t-90 -28.5t-39 33t-21.5 86zM-20 66q16 0 39.5 14t39.5 33q43 49 43 149v936q0 76 -16 108.5t-68 32.5v64l420 176l33 -66q-45 0 -86 -53q-37 -51 -37 -155v-963q0 -55 18.5 -78.5t63.5 -23.5v-58 q-416 -182 -418 -182zM326 1776v110q0 6 76.5 35t89 29t35 -31t22.5 -66v-133q0 -6 -73 -34.5t-90 -28.5t-38.5 33t-21.5 86z" />
<glyph unicode="&#xd0;" d="M-125 715v45l102 96h125v426q0 111 -84 129v45l207 117q45 -18 84 -60.5t39 -78.5l254 143q37 0 107.5 -84t70.5 -152v-1151q0 -16 -224 -103t-274.5 -87t-115 88t-64.5 211v416h-227zM348 340q1 -152 105 -152q39 0 79 33v586l-102 -92h-82v-375zM348 856h184v332 q0 145 -104 145q-41 0 -80 -30v-447z" />
<glyph unicode="&#xd1;" horiz-adv-x="880" d="M-20 0q41 0 79 49q43 57 43 184v1010q0 68 -28.5 117t-71.5 49v45q14 2 223 125q14 -4 35 -11t54.5 -40t33.5 -76q12 6 70 39q152 86 180 86q66 0 123 -86t57 -158v-1030q0 -113 101 -133v-45l-224 -125q-45 18 -84 60t-39 79v1004q0 129 -37.5 176t-146.5 47v-1051 q0 -82 20.5 -111.5t63.5 -29.5v-63l-420 -177zM63 1810q63 82 129 82t168.5 -27.5t135.5 -27.5q102 0 122 51h41l80 -149q-63 -82 -139 -82q-51 0 -144.5 29.5t-142.5 29.5t-83.5 -16.5t-45.5 -38.5h-43z" />
<glyph unicode="&#xd2;" d="M102 299v1090q0 14 233.5 101t268.5 87t105.5 -84t70.5 -152v-1151q0 -16 -224 -103t-274.5 -87t-115 88t-64.5 211zM205 1978q0 39 88 39t100 -20q35 -55 68 -133t33 -109t-7 -51q-12 -45 -26 -45q-51 0 -72 24q-184 238 -184 295zM348 340q1 -152 105 -152q39 0 79 33 v1014q0 152 -104 151q-41 0 -80 -30v-1016z" />
<glyph unicode="&#xd3;" d="M102 299v1090q0 14 233.5 101t268.5 87t105.5 -84t70.5 -152v-1151q0 -16 -224 -103t-274.5 -87t-115 88t-64.5 211zM299 1755q0 31 32.5 109t67.5 133q12 20 100.5 20t88.5 -39q0 -57 -185 -295q-20 -25 -71 -24q-14 0 -23.5 32.5t-9.5 63.5zM348 340q1 -152 105 -152 q39 0 79 33v1014q0 152 -104 151q-41 0 -80 -30v-1016z" />
<glyph unicode="&#xd4;" d="M102 299v1090q0 14 233.5 101t268.5 87t105.5 -84t70.5 -152v-1151q0 -16 -224 -103t-274.5 -87t-115 88t-64.5 211zM102 1739.5q0 15.5 17.5 36t46.5 50t57 56.5q86 80 114 107.5t104.5 27.5t117.5 -30q64 -54 148 -138t84 -104.5t-7 -40.5q-12 -45 -26 -45 q-25 0 -120 62.5t-192 140.5q-96 -78 -191 -140.5t-120 -62.5q-14 0 -23.5 32.5t-9.5 48zM348 340q1 -152 105 -152q39 0 79 33v1014q0 152 -104 151q-41 0 -80 -30v-1016z" />
<glyph unicode="&#xd5;" d="M102 299v1090q0 14 233.5 101t268.5 87t105.5 -84t70.5 -152v-1151q0 -16 -224 -103t-274.5 -87t-115 88t-64.5 211zM102 1810q63 82 129 82t168.5 -27.5t135.5 -27.5q102 0 122 51h41l80 -149q-63 -82 -139 -82q-51 0 -144.5 29.5t-142.5 29.5t-84 -16.5t-45 -38.5h-43z M348 340q1 -152 105 -152q39 0 79 33v1014q0 152 -104 151q-41 0 -80 -30v-1016z" />
<glyph unicode="&#xd6;" d="M102 299v1090q0 14 233.5 101t268.5 87t105.5 -84t70.5 -152v-1151q0 -16 -224 -103t-274.5 -87t-115 88t-64.5 211zM119 1776v110q0 6 76.5 35t89 29t35 -31t22.5 -66v-133q0 -6 -72.5 -34.5t-90 -28.5t-39 33t-21.5 86zM348 340q1 -152 105 -152q39 0 79 33v1014 q0 152 -104 151q-41 0 -80 -30v-1016zM543 1776v110q0 6 76.5 35t89 29t35 -31t22.5 -66v-133q0 -6 -72.5 -34.5t-90 -28.5t-39 33t-21.5 86z" />
<glyph unicode="&#xd7;" horiz-adv-x="862" d="M113 408l206 206l-204 203l30 33l170 -6l117 -115l117 115l170 4l31 -31l-203 -203l205 -204l-35 -35l-166 8l-119 117l-119 -119l-166 -8z" />
<glyph unicode="&#xd8;" d="M86 -78l66 191q-50 84 -50 186v1090q0 14 233.5 101t266.5 87q6 0 47 -21l150 80h51l-82 -237q12 -31 12 -58v-1151q0 -16 -224 -103t-269 -87l-156 -78h-45zM348 682l184 535v18q0 151 -104 151q-41 0 -80 -30v-674zM367 238q27 -49 76 -49.5t89 32.5v496z" />
<glyph unicode="&#xd9;" horiz-adv-x="880" d="M2 1409v45l223 125q45 -18 84 -60t39 -79v-1004q0 -129 37.5 -176t146.5 -47v985q0 76 -16 108.5t-67 32.5v64l419 176l33 -66q-45 0 -86 -53q-37 -51 -37 -155v-969q0 -68 29 -117t72 -49v-45q-14 -2 -224 -125q-14 4 -34.5 11t-54.5 40t-34 76q-12 -6 -69 -39 q-152 -86 -180 -86q-66 0 -123.5 85t-57.5 159v1030q0 113 -100 133zM203 1978q0 39 88 39t100 -20q35 -55 68 -133t33 -109t-7 -51q-12 -45 -26 -45q-51 0 -72 24q-184 238 -184 295z" />
<glyph unicode="&#xda;" horiz-adv-x="880" d="M2 1409v45l223 125q45 -18 84 -60t39 -79v-1004q0 -129 37.5 -176t146.5 -47v985q0 76 -16 108.5t-67 32.5v64l419 176l33 -66q-45 0 -86 -53q-37 -51 -37 -155v-969q0 -68 29 -117t72 -49v-45q-14 -2 -224 -125q-14 4 -34.5 11t-54.5 40t-34 76q-12 -6 -69 -39 q-152 -86 -180 -86q-66 0 -123.5 85t-57.5 159v1030q0 113 -100 133zM397 1755q0 31 33 109t68 133q12 20 100 20t88 -39q0 -57 -184 -295q-20 -25 -72 -24q-14 0 -23.5 32.5t-9.5 63.5z" />
<glyph unicode="&#xdb;" horiz-adv-x="880" d="M2 1409v45l223 125q45 -18 84 -60t39 -79v-1004q0 -129 37.5 -176t146.5 -47v985q0 76 -16 108.5t-67 32.5v64l419 176l33 -66q-45 0 -86 -53q-37 -51 -37 -155v-969q0 -68 29 -117t72 -49v-45q-14 -2 -224 -125q-14 4 -34.5 11t-54.5 40t-34 76q-12 -6 -69 -39 q-152 -86 -180 -86q-66 0 -123.5 85t-57.5 159v1030q0 113 -100 133zM98 1739.5q0 15.5 17.5 36t46 50t57.5 56.5q86 80 113.5 107.5t104.5 27.5t118 -30q63 -54 147 -138t84 -104.5t-6 -40.5q-12 -45 -26 -45q-25 0 -120 62.5t-192 140.5q-96 -78 -191 -140.5t-120 -62.5 q-14 0 -23.5 32.5t-9.5 48z" />
<glyph unicode="&#xdc;" horiz-adv-x="880" d="M2 1409v45l223 125q45 -18 84 -60t39 -79v-1004q0 -129 37.5 -176t146.5 -47v985q0 76 -16 108.5t-67 32.5v64l419 176l33 -66q-45 0 -86 -53q-37 -51 -37 -155v-969q0 -68 29 -117t72 -49v-45q-14 -2 -224 -125q-14 4 -34.5 11t-54.5 40t-34 76q-12 -6 -69 -39 q-152 -86 -180 -86q-66 0 -123.5 85t-57.5 159v1030q0 113 -100 133zM115 1776v110q0 6 76.5 35t89 29t35 -31t22.5 -66v-133q0 -6 -72.5 -34.5t-90 -28.5t-39 33t-21.5 86zM539 1776v110q0 6 76.5 35t89 29t35 -31t22.5 -66v-133q0 -6 -73 -34.5t-90 -28.5t-38.5 33 t-21.5 86z" />
<glyph unicode="&#xdd;" horiz-adv-x="811" d="M-78 1409v43l213 125h80l236 -739q20 10 32 14v428q0 70 -37 115q-20 23 -47 22v45l197 117q16 0 69.5 -46t53.5 -87v-586q0 -35 -230 -117v-385q0 -68 15.5 -93t66.5 -25v-58l-417 -182l-33 66q43 10 72 34q51 47 51 197v432l-205 614q-10 31 -30.5 46.5t-37 17.5 t-49.5 2zM291 1755q0 31 32.5 109t67.5 133q12 20 100.5 20t88.5 -39q0 -57 -185 -295q-20 -25 -71 -24q-14 0 -23.5 32.5t-9.5 63.5z" />
<glyph unicode="&#xde;" horiz-adv-x="862" d="M-78 1257v58q266 139 475 262l33 -66q-8 -4 -22.5 -15t-37 -67.5t-22.5 -138.5v-59q225 137 258 137t103.5 -84t70.5 -151v-596q0 -14 -162.5 -80t-269.5 -99v-43q0 -76 16.5 -108.5t67.5 -32.5v-63l-420 -177l-32 66q45 0 86 53q36 52 36 156v967q0 82 -180 81zM348 455 q53 0 118.5 33.5t65.5 70.5v461q0 151 -104 151q-37 0 -80 -30v-686z" />
<glyph unicode="&#xdf;" horiz-adv-x="839" d="M-23 1001v46l125 55v244q0 39 228.5 134t275.5 95q16 0 26.5 -15.5t16.5 -27.5l19 -39q14 -27 28 -51q27 -49 68 -49v-41q-35 -14 -88 -47q-129 -80 -139 -80q-31 0 -56.5 90t-54.5 90q-78 0 -78 -62v-249q190 74 223 73.5t103.5 -84.5t70.5 -151v-320q0 -31 -108 -86 q106 -123 106 -256v-155q0 -172 -38.5 -328t-79.5 -156q-51 0 -132 31t-137 62l-55 30v62h70q127 0 127 313v66q0 106 -32 154t-112 48h-6v-94q0 -125 84 -141v-45l-207 -117q-45 18 -84 60t-39 79v862h-125zM348 508q102 51 150 72v266q0 88 -28 128t-67 40q-45 0 -55 -60 v-446z" />
<glyph unicode="&#xe0;" horiz-adv-x="839" d="M82 246v336q0 33 106.5 84t212.5 84l109 34q0 117 -61.5 163t-237.5 46v62q317 113 356 112q68 0 129.5 -88t61.5 -182v-580q0 -76 24.5 -105.5t75.5 -41.5v-45l-223 -125q-45 18 -84 60t-39 77l-256 -137q-6 4 -18.5 11t-42 31t-52.5 50q-61 68 -61 154zM252 1612 q0 39 88 39t100 -21q35 -55 68 -133t33 -108.5t-6 -53.5q-12 -43 -27 -43q-51 0 -72 25q-184 238 -184 295zM328 319q0 -53 31.5 -86.5t70.5 -33.5t82 30v463q-51 -18 -76.5 -30.5t-54.5 -38.5q-53 -49 -53 -170v-134z" />
<glyph unicode="&#xe1;" horiz-adv-x="839" d="M82 246v336q0 33 106.5 84t212.5 84l109 34q0 117 -61.5 163t-237.5 46v62q317 113 356 112q68 0 129.5 -88t61.5 -182v-580q0 -76 24.5 -105.5t75.5 -41.5v-45l-223 -125q-45 18 -84 60t-39 77l-256 -137q-6 4 -18.5 11t-42 31t-52.5 50q-61 68 -61 154zM328 319 q0 -53 31.5 -86.5t70.5 -33.5t82 30v463q-51 -18 -76.5 -30.5t-54.5 -38.5q-53 -49 -53 -170v-134zM465 1388.5q0 30.5 32.5 108.5t67.5 133q12 20 100.5 20.5t88.5 -38.5q0 -57 -185 -295q-20 -25 -71 -25q-14 0 -23.5 33t-9.5 63.5z" />
<glyph unicode="&#xe2;" horiz-adv-x="839" d="M82 246v336q0 33 106.5 84t212.5 84l109 34q0 117 -61.5 163t-237.5 46v62q317 113 356 112q68 0 129.5 -88t61.5 -182v-580q0 -76 24.5 -105.5t75.5 -41.5v-45l-223 -125q-45 18 -84 60t-39 77l-256 -137q-6 4 -18.5 11t-42 31t-52.5 50q-61 68 -61 154zM152 1373.5 q0 15.5 17 36t46 50t57 56.5q86 80 114 107.5t104.5 27.5t117.5 -31q64 -53 148 -136t84 -104.5t-6 -44.5q-12 -43 -27 -43q-25 0 -120 62.5t-191 140.5q-96 -78 -191.5 -140.5t-120.5 -62.5q-14 0 -23 33t-9 48.5zM328 319q0 -53 31.5 -86.5t70.5 -33.5t82 30v463 q-51 -18 -76.5 -30.5t-54.5 -38.5q-53 -49 -53 -170v-134z" />
<glyph unicode="&#xe3;" horiz-adv-x="839" d="M82 246v336q0 33 106.5 84t212.5 84l109 34q0 117 -61.5 163t-237.5 46v62q317 113 356 112q68 0 129.5 -88t61.5 -182v-580q0 -76 24.5 -105.5t75.5 -41.5v-45l-223 -125q-45 18 -84 60t-39 77l-256 -137q-6 4 -18.5 11t-42 31t-52.5 50q-61 68 -61 154zM166 1444 q63 82 128.5 82t168 -28t135.5 -28q102 0 123 52h41l80 -150q-64 -82 -140 -82q-51 0 -144 30t-142 30t-84 -16.5t-45 -39.5h-43zM328 319q0 -53 31.5 -86.5t70.5 -33.5t82 30v463q-51 -18 -76.5 -30.5t-54.5 -38.5q-53 -49 -53 -170v-134z" />
<glyph unicode="&#xe4;" horiz-adv-x="839" d="M82 246v336q0 33 106.5 84t212.5 84l109 34q0 117 -61.5 163t-237.5 46v62q317 113 356 112q68 0 129.5 -88t61.5 -182v-580q0 -76 24.5 -105.5t75.5 -41.5v-45l-223 -125q-45 18 -84 60t-39 77l-256 -137q-6 4 -18.5 11t-42 31t-52.5 50q-61 68 -61 154zM195 1409v111 q0 6 76.5 34.5t89 28.5t35 -30.5t22.5 -65.5v-133q0 -6 -73 -35t-90 -29t-38.5 33t-21.5 86zM328 319q0 -53 31.5 -86.5t70.5 -33.5t82 30v463q-51 -18 -76.5 -30.5t-54.5 -38.5q-53 -49 -53 -170v-134zM618 1409v111q0 6 77 34.5t89.5 28.5t35 -30.5t22.5 -65.5v-133 q0 -6 -73 -35t-90 -29t-39 33t-22 86z" />
<glyph unicode="&#xe5;" horiz-adv-x="839" d="M82 246v336q0 33 106.5 84t212.5 84l109 34q0 117 -61.5 163t-237.5 46v62q317 113 356 112q68 0 129.5 -88t61.5 -182v-580q0 -76 24.5 -105.5t75.5 -41.5v-45l-223 -125q-45 18 -84 60t-39 77l-256 -137q-6 4 -18.5 11t-42 31t-52.5 50q-61 68 -61 154zM328 319 q0 -53 31.5 -86.5t70.5 -33.5t82 30v463q-51 -18 -76.5 -30.5t-54.5 -38.5q-53 -49 -53 -170v-134zM352 1415v127q0 6 108.5 43t123 37t44 -36t29.5 -62v-154q0 -6 -104 -43t-125.5 -37t-48.5 36t-27 89zM475 1434q0 -64 35 -64q14 0 22 12v97q0 63 -32 63q-16 0 -25 -12 v-96z" />
<glyph unicode="&#xe6;" horiz-adv-x="1228" d="M61 246v336q0 33 106.5 84t213.5 84l108 34q0 117 -61 163t-238 46v62q317 113 357 112q74 0 137 -102q272 102 309 102q10 0 51 -31.5t82 -88t41 -109.5v-344q0 -37 -108.5 -90t-209.5 -87t-110 -34q0 -158 138 -195q68 -16 161 -16v-59q-336 -113 -367.5 -113t-77.5 43 t-75 111l-282 -154q-6 4 -18.5 11t-42.5 31t-52 50q-61 68 -62 154zM307 319q0 -53 32 -86.5t71 -33.5t82 30v463q-51 -18 -77 -30.5t-55 -38.5q-53 -49 -53 -170v-134zM737 475q184 51 185 221v146q0 57 -27 97t-68 40t-90 -31v-473z" />
<glyph unicode="&#xe7;" horiz-adv-x="827" d="M102 291q0 -117 63.5 -204t125.5 -87q23 0 358 113v59q-96 0 -166 16q-135 37 -135 195v565q17 21 37 21q29 0 76 -167t78 -167q8 0 115.5 52t152.5 73v41q-66 0 -89.5 40t-45 124t-38 143t-28.5 59q-35 0 -269.5 -87t-234.5 -101v-688zM199 -94q0 66 32 137l11 23h135 q-29 -106 -29 -130t14 -24l111 33q20 0 34.5 -35t14.5 -84v-84q0 -14 -119.5 -51t-136.5 -37q-31 0 -30 43q0 8 129 51q23 8 22 25v22q0 35 -20 35l-119 -37q-18 0 -33.5 38t-15.5 75z" />
<glyph unicode="&#xe8;" horiz-adv-x="880" d="M102 291v688q0 14 233.5 101t268.5 87q10 0 51 -31.5t82 -88t41 -109.5v-344q0 -37 -108.5 -90t-210 -87t-109.5 -34q0 -158 137 -195q68 -16 162 -16v-59q-336 -113 -358 -113q-61 0 -125 87t-64 204zM289 1612q0 39 88 39t100 -21q35 -55 68 -133t33 -108.5t-7 -53.5 q-12 -43 -26 -43q-51 0 -72 25q-184 238 -184 295zM348 475q184 51 184 221v146q0 57 -26.5 97t-67.5 40t-90 -31v-473z" />
<glyph unicode="&#xe9;" horiz-adv-x="880" d="M102 291v688q0 14 233.5 101t268.5 87q10 0 51 -31.5t82 -88t41 -109.5v-344q0 -37 -108.5 -90t-210 -87t-109.5 -34q0 -158 137 -195q68 -16 162 -16v-59q-336 -113 -358 -113q-61 0 -125 87t-64 204zM348 475q184 51 184 221v146q0 57 -26.5 97t-67.5 40t-90 -31v-473z M498 1388.5q0 30.5 32.5 108.5t67.5 133q12 20 100 20.5t88 -38.5q0 -57 -184 -295q-20 -25 -72 -25q-14 0 -23 33t-9 63.5z" />
<glyph unicode="&#xea;" horiz-adv-x="880" d="M102 291v688q0 14 233.5 101t268.5 87q10 0 51 -31.5t82 -88t41 -109.5v-344q0 -37 -108.5 -90t-210 -87t-109.5 -34q0 -158 137 -195q68 -16 162 -16v-59q-336 -113 -358 -113q-61 0 -125 87t-64 204zM115 1373.5q0 15.5 17.5 36t46 50t57.5 56.5q86 80 113.5 107.5 t104 27.5t117.5 -31q64 -53 148 -136t84 -104.5t-6 -44.5q-12 -43 -27 -43q-25 0 -120 62.5t-191 140.5q-96 -78 -191.5 -140.5t-120.5 -62.5q-14 0 -23 33t-9 48.5zM348 475q184 51 184 221v146q0 57 -26.5 97t-67.5 40t-90 -31v-473z" />
<glyph unicode="&#xeb;" horiz-adv-x="880" d="M102 291v688q0 14 233.5 101t268.5 87q10 0 51 -31.5t82 -88t41 -109.5v-344q0 -37 -108.5 -90t-210 -87t-109.5 -34q0 -158 137 -195q68 -16 162 -16v-59q-336 -113 -358 -113q-61 0 -125 87t-64 204zM115 1409v111q0 6 76.5 34.5t89 28.5t35 -30.5t22.5 -65.5v-133 q0 -6 -72.5 -35t-90 -29t-39 33t-21.5 86zM348 475q184 51 184 221v146q0 57 -26.5 97t-67.5 40t-90 -31v-473zM539 1409v111q0 6 76.5 34.5t89 28.5t35 -30.5t22.5 -65.5v-133q0 -6 -73 -35t-90 -29t-38.5 33t-21.5 86z" />
<glyph unicode="&#xec;" horiz-adv-x="450" d="M18 1006v45l207 116q45 -18 84 -60t39 -79v-725q0 -125 84 -141v-45l-207 -117q-45 18 -84 60t-39 79v725q0 125 -84 142zM25 1612q0 39 88 39t100 -21q35 -55 67.5 -133t32.5 -108.5t-6 -53.5q-12 -43 -26 -43q-51 0 -72 25q-184 238 -184 295z" />
<glyph unicode="&#xed;" horiz-adv-x="450" d="M18 1006v45l207 116q45 -18 84 -60t39 -79v-725q0 -125 84 -141v-45l-207 -117q-45 18 -84 60t-39 79v725q0 125 -84 142zM100 1388.5q0 30.5 33 108.5t68 133q12 20 100 20.5t88 -38.5q0 -57 -184 -295q-20 -25 -72 -25q-14 0 -23.5 33t-9.5 63.5z" />
<glyph unicode="&#xee;" horiz-adv-x="450" d="M-115 1373.5q0 15.5 17.5 36t46 50t57.5 56.5q86 80 113.5 107.5t104.5 27.5t118 -31q64 -53 147.5 -136t83.5 -104.5t-6 -44.5q-12 -43 -26 -43q-25 0 -120 62.5t-192 140.5q-96 -78 -191 -140.5t-120 -62.5q-14 0 -23.5 33t-9.5 48.5zM18 1006v45l207 116 q45 -18 84 -60t39 -79v-725q0 -125 84 -141v-45l-207 -117q-45 18 -84 60t-39 79v725q0 125 -84 142z" />
<glyph unicode="&#xef;" horiz-adv-x="450" d="M-98 1409v111q0 6 76.5 34.5t89 28.5t35 -30.5t22.5 -65.5v-133q0 -6 -72.5 -35t-90 -29t-39 33t-21.5 86zM18 1006v45l207 116q45 -18 84 -60t39 -79v-725q0 -125 84 -141v-45l-207 -117q-45 18 -84 60t-39 79v725q0 125 -84 142zM326 1409v111q0 6 76.5 34.5t89 28.5 t35 -30.5t22.5 -65.5v-133q0 -6 -73 -35t-90 -29t-38.5 33t-21.5 86z" />
<glyph unicode="&#xf0;" d="M102 248v602q0 8 52.5 32.5t157 57.5t216.5 51q0 68 -47 166l-213 -94l-18 43l55 129l101 43q-107 135 -205 135h-60v62q219 102 324 102q49 0 166 -199l182 80l21 -45l-58 -125l-80 -37q84 -182 84 -274v-784q0 -18 -219 -105.5t-285 -87.5q-14 0 -54 31.5t-80 92 t-40 124.5zM348 340q1 -152 105 -152q41 0 77 33v666q-59 0 -151 -37l-31 -12v-498z" />
<glyph unicode="&#xf1;" horiz-adv-x="880" d="M2 999v45q14 2 223 125q14 -4 35 -11t54.5 -40t33.5 -76q12 6 70 39q152 86 180 86q66 0 123 -86t57 -157v-621q0 -113 101 -133v-45l-224 -125q-45 18 -84 60t-39 79v594q0 115 -25.5 175.5t-90.5 60.5l-68 -13v-653q0 -125 84 -141v-45l-207 -117q-45 18 -84 60t-39 79 v695q0 68 -28.5 116.5t-71.5 48.5zM98 1444q63 82 129 82t168.5 -28t134.5 -28q102 0 123 52h41l80 -150q-63 -82 -139 -82q-51 0 -144.5 30t-142.5 30t-84 -16.5t-45 -39.5h-43z" />
<glyph unicode="&#xf2;" d="M102 299v680q0 14 233.5 101t268.5 87t105.5 -84t70.5 -151v-742q0 -16 -224 -103t-274.5 -87t-115 88t-64.5 211zM289 1612q0 39 88 39t100 -21q35 -55 68 -133t33 -108.5t-7 -53.5q-12 -43 -26 -43q-51 0 -72 25q-184 238 -184 295zM348 340q1 -152 105 -152 q39 0 79 33v604q0 152 -104 152q-41 0 -80 -31v-606z" />
<glyph unicode="&#xf3;" d="M102 299v680q0 14 233.5 101t268.5 87t105.5 -84t70.5 -151v-742q0 -16 -224 -103t-274.5 -87t-115 88t-64.5 211zM348 340q1 -152 105 -152q39 0 79 33v604q0 152 -104 152q-41 0 -80 -31v-606zM481 1388.5q0 30.5 33 108.5t68 133q12 20 100 20.5t88 -38.5 q0 -57 -184 -295q-20 -25 -72 -25q-14 0 -23.5 33t-9.5 63.5z" />
<glyph unicode="&#xf4;" d="M98 1373.5q0 15.5 17.5 36t46 50t57.5 56.5q86 80 113.5 107.5t104.5 27.5t118 -31q63 -53 147 -136t84 -104.5t-6 -44.5q-12 -43 -26 -43q-25 0 -120 62.5t-192 140.5q-96 -78 -191 -140.5t-120 -62.5q-14 0 -23.5 33t-9.5 48.5zM102 299v680q0 14 233.5 101t268.5 87 t105.5 -84t70.5 -151v-742q0 -16 -224 -103t-274.5 -87t-115 88t-64.5 211zM348 340q1 -152 105 -152q39 0 79 33v604q0 152 -104 152q-41 0 -80 -31v-606z" />
<glyph unicode="&#xf5;" d="M98 1444q63 82 129 82t168.5 -28t134.5 -28q102 0 123 52h41l80 -150q-63 -82 -139 -82q-51 0 -144.5 30t-142.5 30t-84 -16.5t-45 -39.5h-43zM102 299v680q0 14 233.5 101t268.5 87t105.5 -84t70.5 -151v-742q0 -16 -224 -103t-274.5 -87t-115 88t-64.5 211zM348 340 q1 -152 105 -152q39 0 79 33v604q0 152 -104 152q-41 0 -80 -31v-606z" />
<glyph unicode="&#xf6;" d="M102 299v680q0 14 233.5 101t268.5 87t105.5 -84t70.5 -151v-742q0 -16 -224 -103t-274.5 -87t-115 88t-64.5 211zM115 1409v111q0 6 76.5 34.5t89 28.5t35 -30.5t22.5 -65.5v-133q0 -6 -72.5 -35t-90 -29t-39 33t-21.5 86zM348 340q1 -152 105 -152q39 0 79 33v604 q0 152 -104 152q-41 0 -80 -31v-606zM539 1409v111q0 6 76.5 34.5t89 28.5t35 -30.5t22.5 -65.5v-133q0 -6 -73 -35t-90 -29t-38.5 33t-21.5 86z" />
<glyph unicode="&#xf7;" horiz-adv-x="862" d="M20 535v45l123 116h699v-49l-123 -112h-699zM305 209v125q0 6 85 37.5t98.5 31.5t39 -34.5t25.5 -71.5v-150q0 -6 -82 -37.5t-100.5 -31.5t-42 36t-23.5 95zM305 963v124q0 6 85 38t98.5 32t39 -35t25.5 -71v-150q0 -6 -82 -38t-100.5 -32t-42 36.5t-23.5 95.5z" />
<glyph unicode="&#xf8;" d="M86 -201l92 271q-76 98 -76 229v680q0 10 170 76.5t277 99.5l47 135l149 80h52l-97 -278q80 -88 80 -160v-742q0 -14 -177 -85.5t-273 -96.5l-45 -131l-154 -78h-45zM348 565l135 396q-25 16 -60.5 16t-74.5 -31v-381zM397 205q23 -16 59 -16.5t76 32.5v377z" />
<glyph unicode="&#xf9;" horiz-adv-x="880" d="M2 999v45l223 125q45 -18 84 -60t39 -79v-711q0 -53 32 -86.5t70.5 -33.5t81.5 30v637q0 125 -83 142v45l206 116q45 -18 84 -60t39 -79v-694q0 -68 29 -117t72 -49v-45q-14 -2 -224 -125q-47 20 -85 60t-38 77l-256 -137q-6 4 -18 11t-42 31t-52 50q-61 68 -62 154v620 q0 113 -100 133zM176 1612q0 39 88 39t101 -21q34 -55 67 -133t33 -108.5t-6 -53.5q-12 -43 -27 -43q-51 0 -72 25q-184 238 -184 295z" />
<glyph unicode="&#xfa;" horiz-adv-x="880" d="M2 999v45l223 125q45 -18 84 -60t39 -79v-711q0 -53 32 -86.5t70.5 -33.5t81.5 30v637q0 125 -83 142v45l206 116q45 -18 84 -60t39 -79v-694q0 -68 29 -117t72 -49v-45q-14 -2 -224 -125q-47 20 -85 60t-38 77l-256 -137q-6 4 -18 11t-42 31t-52 50q-61 68 -62 154v620 q0 113 -100 133zM377 1388.5q0 30.5 32.5 108.5t67.5 133q12 20 100.5 20.5t88.5 -38.5q0 -57 -185 -295q-20 -25 -71 -25q-14 0 -23.5 33t-9.5 63.5z" />
<glyph unicode="&#xfb;" horiz-adv-x="880" d="M2 999v45l223 125q45 -18 84 -60t39 -79v-711q0 -53 32 -86.5t70.5 -33.5t81.5 30v637q0 125 -83 142v45l206 116q45 -18 84 -60t39 -79v-694q0 -68 29 -117t72 -49v-45q-14 -2 -224 -125q-47 20 -85 60t-38 77l-256 -137q-6 4 -18 11t-42 31t-52 50q-61 68 -62 154v620 q0 113 -100 133zM102 1373.5q0 15.5 17.5 36t46.5 50t57 56.5q86 80 114 107.5t104.5 27.5t117.5 -31q64 -53 148 -136t84 -104.5t-7 -44.5q-12 -43 -26 -43q-25 0 -120 62.5t-192 140.5q-96 -78 -191 -140.5t-120 -62.5q-14 0 -23.5 33t-9.5 48.5z" />
<glyph unicode="&#xfc;" horiz-adv-x="880" d="M2 999v45l223 125q45 -18 84 -60t39 -79v-711q0 -53 32 -86.5t70.5 -33.5t81.5 30v637q0 125 -83 142v45l206 116q45 -18 84 -60t39 -79v-694q0 -68 29 -117t72 -49v-45q-14 -2 -224 -125q-47 20 -85 60t-38 77l-256 -137q-6 4 -18 11t-42 31t-52 50q-61 68 -62 154v620 q0 113 -100 133zM119 1409v111q0 6 76.5 34.5t89 28.5t35 -30.5t22.5 -65.5v-133q0 -6 -72.5 -35t-90 -29t-39 33t-21.5 86zM543 1409v111q0 6 76.5 34.5t89 28.5t35 -30.5t22.5 -65.5v-133q0 -6 -72.5 -35t-90 -29t-39 33t-21.5 86z" />
<glyph unicode="&#xfd;" d="M4 999v45l223 125q45 -18 84 -60t39 -79v-555q0 -143 45 -191t140 -48v630q0 125 -84 142v45l206 116q45 -18 84 -60t39 -79v-813q0 -78 -69.5 -222.5t-147.5 -254t-106 -109.5q-51 0 -137.5 31t-147.5 62l-59 30v62h69q80 0 182.5 91t170.5 243q-231 -109 -267 -109 q-63 0 -113.5 81t-50.5 181v563q0 113 -100 133zM375 1388.5q0 30.5 32.5 108.5t67.5 133q12 20 100.5 20.5t88.5 -38.5q0 -57 -185 -295q-20 -25 -71 -25q-14 0 -23.5 33t-9.5 63.5z" />
<glyph unicode="&#xfe;" d="M20 1255v58q266 139 476 262l32 -66q-20 -10 -57 -39.5t-61 -60.5q-61 -78 -62 -176v-174q211 109 246 108q53 0 119.5 -84t66.5 -178v-719q0 -14 -181 -84.5t-251 -89.5v-75q0 -125 84 -142v-45l-207 -117q-45 18 -84 60.5t-39 79.5v1380q0 55 -18 78.5t-64 23.5z M348 129q53 0 118.5 35t65.5 74v495q0 201 -73 228q-35 12 -111 12v-844z" />
<glyph unicode="&#xff;" d="M4 999v45l223 125q45 -18 84 -60t39 -79v-555q0 -143 45 -191t140 -48v630q0 125 -84 142v45l206 116q45 -18 84 -60t39 -79v-813q0 -78 -69.5 -222.5t-147.5 -254t-106 -109.5q-51 0 -137.5 31t-147.5 62l-59 30v62h69q80 0 182.5 91t170.5 243q-231 -109 -267 -109 q-63 0 -113.5 81t-50.5 181v563q0 113 -100 133zM119 1409v111q0 6 76.5 34.5t89 28.5t35 -30.5t22.5 -65.5v-133q0 -6 -72.5 -35t-90 -29t-39 33t-21.5 86zM543 1409v111q0 6 76.5 34.5t89 28.5t35 -30.5t22.5 -65.5v-133q0 -6 -72.5 -35t-90 -29t-39 33t-21.5 86z" />
<glyph unicode="&#x152;" horiz-adv-x="1239" d="M102 299v1090q0 14 233.5 101t258.5 87q51 0 131 -104q268 104 313 104q12 0 28.5 -59.5t38 -143.5t45.5 -124t89 -40v-41q-45 -20 -152.5 -72.5t-115.5 -52.5q-31 0 -78 167t-76 167q-20 0 -37 -20v-541h289v-49l-102 -51h-187v-205q0 -227 47 -266q66 -57 146 -65.5 t172 -8.5v-59q-10 0 -151.5 -56.5t-171 -56.5t-87 31.5t-106.5 83.5q-283 -115 -340.5 -115t-122 88t-64.5 211zM348 340q1 -152 105 -152q39 0 79 33v1014q0 152 -104 151q-41 0 -80 -30v-1016z" />
<glyph unicode="&#x153;" horiz-adv-x="1312" d="M102 299v680q0 14 233.5 101t258.5 87q51 0 131 -104q268 104 311 104q10 0 51 -31.5t82 -88t41 -109.5v-344q0 -37 -108.5 -90t-209.5 -87t-110 -34q0 -158 136 -195q70 -16 163 -16v-59q-336 -113 -358 -113q-72 0 -133 98q-250 -98 -304.5 -98t-119 88t-64.5 211z M348 340q1 -152 105 -152q39 0 79 33v604q0 152 -104 152q-41 0 -80 -31v-606zM780 475q184 51 185 221v146q0 57 -27 97t-68 40t-90 -31v-473z" />
<glyph unicode="&#x178;" horiz-adv-x="858" d="M-78 1409v43l213 125h80l236 -739q20 10 32 14v428q0 70 -37 115q-20 23 -47 22v45l197 117q16 0 69.5 -46t53.5 -87v-586q0 -35 -230 -117v-385q0 -68 15.5 -93t66.5 -25v-58l-417 -182l-33 66q43 10 72 34q51 47 51 197v432l-205 614q-10 31 -30.5 46.5t-37 17.5 t-49.5 2zM37 1776v110q0 6 76.5 35t89 29t35 -31t22.5 -66v-133q0 -6 -72.5 -34.5t-90 -28.5t-39 33t-21.5 86zM461 1776v110q0 6 76.5 35t89 29t35 -31t22.5 -66v-133q0 -6 -72.5 -34.5t-90 -28.5t-39 33t-21.5 86z" />
<glyph unicode="&#x2c6;" horiz-adv-x="770" d="M41 1373.5q0 15.5 17.5 36t46 50t57.5 56.5q86 80 113.5 107.5t104.5 27.5t118 -31q63 -53 147 -136t84 -104.5t-6 -44.5q-12 -43 -27 -43q-25 0 -120 62.5t-191 140.5q-96 -78 -191.5 -140.5t-119.5 -62.5q-14 0 -23.5 33t-9.5 48.5z" />
<glyph unicode="&#x2dc;" horiz-adv-x="757" d="M41 1444q63 82 129 82t168 -28t135 -28q102 0 123 52h41l80 -150q-63 -82 -139 -82q-51 0 -144.5 30t-142.5 30t-84 -16.5t-45 -39.5h-43z" />
<glyph unicode="&#x2000;" horiz-adv-x="1009" />
<glyph unicode="&#x2001;" horiz-adv-x="2019" />
<glyph unicode="&#x2002;" horiz-adv-x="1009" />
<glyph unicode="&#x2003;" horiz-adv-x="2019" />
<glyph unicode="&#x2004;" horiz-adv-x="673" />
<glyph unicode="&#x2005;" horiz-adv-x="504" />
<glyph unicode="&#x2006;" horiz-adv-x="336" />
<glyph unicode="&#x2007;" horiz-adv-x="336" />
<glyph unicode="&#x2008;" horiz-adv-x="252" />
<glyph unicode="&#x2009;" horiz-adv-x="403" />
<glyph unicode="&#x200a;" horiz-adv-x="112" />
<glyph unicode="&#x2010;" horiz-adv-x="780" d="M61 535v45l123 116h535v-49l-123 -112h-535z" />
<glyph unicode="&#x2011;" horiz-adv-x="780" d="M61 535v45l123 116h535v-49l-123 -112h-535z" />
<glyph unicode="&#x2012;" horiz-adv-x="780" d="M61 535v45l123 116h535v-49l-123 -112h-535z" />
<glyph unicode="&#x2013;" horiz-adv-x="798" d="M61 535v45l123 116h553v-49l-123 -112h-553z" />
<glyph unicode="&#x2014;" horiz-adv-x="1226" d="M61 535v45l123 116h981v-49l-123 -112h-981z" />
<glyph unicode="&#x2018;" horiz-adv-x="360" d="M61 1225v82q0 45 38 140t100 130l69 -66q-27 -10 -40 -58t-13 -87q0 -6 17.5 -35.5t17.5 -70.5v-64q0 -4 -64.5 -28.5t-76 -24.5t-30 26.5t-18.5 55.5z" />
<glyph unicode="&#x2019;" horiz-adv-x="360" d="M92 1208q27 10 40 58.5t13 87.5q0 6 -17 35.5t-17 70.5v64q0 4 64.5 28.5t75.5 24.5t29.5 -26.5t18.5 -55.5v-82q0 -45 -38 -140t-99 -130z" />
<glyph unicode="&#x201a;" horiz-adv-x="360" d="M92 63q27 10 40 58.5t13 87.5q0 6 -17 35.5t-17 70.5v64q0 4 64.5 28.5t75.5 24.5t29.5 -26.5t18.5 -55.5v-82q0 -45 -38 -140t-99 -130z" />
<glyph unicode="&#x201c;" horiz-adv-x="684" d="M61 1225v82q0 45 38 140t100 130l69 -66q-27 -10 -40 -58t-13 -87q0 -6 17.5 -35.5t17.5 -70.5v-64q0 -4 -64.5 -28.5t-76 -24.5t-30 26.5t-18.5 55.5zM385 1225v82q0 45 38 140t99 130l70 -66q-27 -10 -40 -58t-13 -87q0 -6 17 -35.5t17 -70.5v-64q0 -4 -64.5 -28.5 t-75.5 -24.5t-29.5 26.5t-18.5 55.5z" />
<glyph unicode="&#x201d;" horiz-adv-x="684" d="M92 1208q27 10 40 58.5t13 87.5q0 6 -17 35.5t-17 70.5v64q0 4 64.5 28.5t75.5 24.5t29.5 -26.5t18.5 -55.5v-82q0 -45 -38 -140t-99 -130zM416 1208q27 10 40 58.5t13 87.5q0 6 -17.5 35.5t-17.5 70.5v64q0 4 64.5 28.5t76 24.5t30 -26.5t18.5 -55.5v-82q0 -45 -38 -140 t-100 -130z" />
<glyph unicode="&#x201e;" horiz-adv-x="684" d="M92 66q27 10 40 58t13 87q0 6 -17 35.5t-17 70.5v64q0 4 64.5 28.5t75.5 24.5t29.5 -26.5t18.5 -55.5v-82q0 -45 -38 -140t-99 -130zM416 66q27 10 40 58t13 87q0 6 -17.5 35.5t-17.5 70.5v64q0 4 64.5 28.5t76 24.5t30 -26.5t18.5 -55.5v-82q0 -45 -38 -140t-100 -130z " />
<glyph unicode="&#x2022;" horiz-adv-x="456" d="M102 539v254q0 4 87 36.5t99.5 32.5t39 -31.5t26.5 -56.5v-274q0 -6 -84 -39t-102 -33t-42 33t-24 78z" />
<glyph unicode="&#x2026;" horiz-adv-x="1357" d="M102 131v125q0 6 85 38t98.5 32t39 -35t25.5 -72v-149q0 -6 -82 -38t-100 -32t-42 36t-24 95zM555 131v125q0 6 85 38t98.5 32t39 -35t25.5 -72v-149q0 -6 -82 -38t-100.5 -32t-42 36t-23.5 95zM1008 131v125q0 6 85 38t98 32t38.5 -35t25.5 -72v-149q0 -6 -81.5 -38 t-100 -32t-42 36t-23.5 95z" />
<glyph unicode="&#x202f;" horiz-adv-x="403" />
<glyph unicode="&#x2039;" horiz-adv-x="657" d="M41 506l16 61l-16 62l510 309l24 -43l-28 -139l-342 -189l342 -182l28 -145l-24 -43z" />
<glyph unicode="&#x203a;" horiz-adv-x="657" d="M82 240l29 145l342 182l-342 189l-29 139l24 43l510 -309l-16 -62l16 -61l-510 -309z" />
<glyph unicode="&#x205f;" horiz-adv-x="504" />
<glyph unicode="&#x20ac;" horiz-adv-x="806" d="M-20 457v45l122 116v179h-122v45l122 116v431q0 14 234.5 101t269.5 87q12 0 27.5 -44t39 -112.5t46 -108.5t88.5 -40v-41q-45 -20 -152.5 -72.5t-115.5 -52.5q-31 0 -78 136t-76 136q-20 0 -37 -20v-400h330v-49l-123 -112h-207v-179h330v-49l-123 -112h-207 q0 -88 10.5 -134.5t47 -85t109.5 -52t198 -13.5v-59q-10 0 -151.5 -56.5t-172.5 -56.5q-63 0 -175 98.5t-112 212.5v146h-122z" />
<glyph unicode="&#x2122;" horiz-adv-x="1239" d="M41 1526q29 51 72 51h276q63 0 74 35h22l60 -86q-29 -53 -70 -53h-119v-220q0 -39 8.5 -55t34.5 -16v-33l-215 -90l-16 33q27 0 44 32.5t17 75.5v244l35 29h-67q-63 0 -74 -33h-21zM475 1092q27 0 45.5 32.5t18.5 75.5v217q0 35 -14.5 59.5t-39.5 24.5v23q8 2 115 63 q66 -14 66 -63q6 2 34 20q72 43 93 43q49 0 79 -63q127 63 142 63q35 0 63.5 -44t28.5 -81v-213q0 -57 51 -69v-23l-115 -65q-61 31 -61 73v199q0 63 -21.5 88t-74.5 27v-230q0 -57 51 -69v-23l-115 -65q-61 31 -61 73v199q0 68 -19.5 91.5t-74.5 23.5v-226q0 -39 8 -55 t33 -16v-33l-213 -90z" />
<glyph unicode="&#x25fc;" horiz-adv-x="1167" d="M0 0v1167h1167v-1167h-1167z" />
<glyph unicode="&#xfb01;" horiz-adv-x="880" d="M-23 954v45l125 56v291q0 39 261.5 134t310.5 95q16 0 20 -19.5t8 -35.5q12 -51 41 -99q27 -49 68 -49v-41q-27 -10 -90 -41q-141 -63 -159.5 -63t-36 27.5t-29.5 60.5q-33 90 -82 90q-66 0 -66 -82v-268h111l196 78q45 -18 84 -60.5t39 -79.5v-690q0 -125 84 -141v-45 l-207 -117q-45 18 -84 60t-39 79v674q0 141 -83 141h-101v-651q0 -125 84 -141v-45l-207 -117q-45 18 -84 60t-39 79v815h-125z" />
<glyph unicode="&#xfb02;" horiz-adv-x="1105" d="M-23 954v45l125 56v291q0 39 261.5 134t312.5 95q47 -20 85 -67.5t38 -92.5v-1112q0 -125 84 -141v-45l-207 -117q-45 18 -84 60t-39 79v1026q0 240 -109 240q-96 0 -96 -82v-268h156v-49l-103 -52h-53v-651q0 -125 84 -141v-45l-207 -117q-45 18 -84 60t-39 79v815h-125 z" />
<glyph unicode="&#xfb03;" horiz-adv-x="1331" d="M-23 954v45l125 56v291q0 39 261.5 134t312.5 95q80 -39 110 -107q285 106 338 107q16 0 20.5 -19.5t8.5 -35.5q12 -51 41 -99q27 -49 68 -49v-41q-27 -10 -91 -41q-141 -63 -159.5 -63t-36 27.5t-29.5 60.5q-33 90 -82 90q-65 0 -65 -82v-268h110l197 78 q45 -18 84 -60.5t39 -79.5v-690q0 -125 84 -141v-45l-207 -117q-45 18 -84 60t-39 79v674q0 141 -84 141h-100v-651q0 -125 84 -141v-45l-207 -117q-45 18 -84 60t-39 79v815h-205v-651q0 -125 84 -141v-45l-207 -117q-45 18 -84 60t-39 79v815h-125zM348 1055h205v143 q0 207 -109 207q-96 0 -96 -82v-268z" />
</font>
</defs>
</svg>
